<svg xmlns="http://www.w3.org/2000/svg" viewBox="0 0 80 80">
  <path d="M38.726562 9C33.88554 9 29.535633 11.649371 26.378906 14.224609C23.222179 16.799848 21.210937 19.384766 21.210938 19.384766L20.308594 20.542969L21.716797 20.958984C21.716797 20.958984 22.266975 21.109198 22.919922 21.779297C23.572869 22.449395 24.273437 23.588075 24.273438 25.751953C24.273438 28.552371 24.701586 30.811975 24.916016 31.769531C24.359211 32.278599 24 32.995079 24 33.800781C24 34.450638 24.193614 35.00244 24.353516 35.546875C24.433466 35.819092 24.510374 36.073356 24.5625 36.265625C24.61463 36.457894 24.625 36.643858 24.625 36.5C24.625 37.891607 25.805778 39 27.1875 39L27.244141 39C27.688316 42.441434 29.438111 45.46321 32 47.517578L32 50.541016L28.960938 53.169922C21.964937 56.228922 14 60.325 14 65L14 71L46.783203 71C46.481203 70.351 46.211422 69.686 45.982422 69L41.923828 69L41.257812 60.355469L42.09375 58.263672L45.207031 60.339844C45.308031 59.618844 45.450859 58.91175 45.630859 58.21875L43.490234 56.791016C44.392255 56.180569 45.197588 55.418666 45.886719 54.683594C46.541545 53.985112 47.074857 53.308545 47.492188 52.748047L47.837891 53.046875C48.190891 52.473875 48.571422 51.922578 48.982422 51.392578L48 50.542969L48 47.519531C50.561072 45.465062 52.309751 42.441772 52.753906 39L52.8125 39C54.194619 39 55.373047 37.890802 55.373047 36.5C55.373047 36.643858 55.38538 36.45789 55.4375 36.265625C55.48963 36.073356 55.566533 35.819092 55.646484 35.546875C55.806386 35.00244 55.998047 34.450638 55.998047 33.800781C55.998874 32.98214 55.628348 32.256255 55.056641 31.746094C55.240472 30.693073 56 26.177353 56 23C56 19.407364 54.65612 16.831503 52.841797 15.236328C51.214855 13.8059 49.299035 13.229012 47.603516 13.107422C47.331339 12.67697 46.848064 11.996623 45.841797 11.210938C44.404272 10.088527 42.089138 9 38.726562 9 z M 38.726562 11C41.66599 11 43.487353 11.911471 44.611328 12.789062C45.735303 13.666654 46.103516 14.441406 46.103516 14.441406L46.378906 15L47 15C48.332508 15 50.123557 15.509207 51.521484 16.738281C52.919411 17.967356 54 19.889636 54 23C54 25.790852 53.334261 29.861149 53.142578 31.001953C53.136589 31.001916 53.130997 31 53.125 31C53.040922 31 53.05559 31.020743 53 31.027344L53 28C53 24.57812 51.601408 22.275725 50.195312 20.914062C48.789218 19.5524 47.318359 19.052734 47.318359 19.052734L46.746094 18.859375L46.308594 19.277344C46.308594 19.277344 45.681316 19.894668 44.160156 20.589844C42.638997 21.285019 40.289961 22 37 22C35.200387 22 32.826634 22.636647 30.769531 24.074219C28.717851 25.508001 27.012899 27.852966 27.003906 31.029297C26.947286 31.022296 26.961862 31 26.875 31C26.851013 31 26.828559 31.007224 26.804688 31.007812C26.60088 30.041314 26.273437 28.158882 26.273438 25.751953C26.273438 23.131832 25.337568 21.394667 24.353516 20.384766C23.938597 19.958948 23.842511 20.029311 23.480469 19.818359C24.170718 19.004045 25.455427 17.561248 27.644531 15.775391C30.616804 13.350629 34.631585 11 38.726562 11 z M 46.998047 21.15625C47.240955 21.25027 47.873808 21.448146 48.804688 22.349609C49.898592 23.408947 51 25.10588 51 28L51 34.304688L52.505859 33.423828C52.763271 33.273148 53.000659 33.139974 53.167969 33.054688C53.189159 33.043886 53.194211 33.042323 53.212891 33.033203C53.67253 33.079553 53.99845 33.398087 53.998047 33.798828L53.998047 33.800781C53.998047 33.875921 53.879161 34.462857 53.726562 34.982422C53.650262 35.242205 53.570921 35.502206 53.505859 35.742188C53.440799 35.982169 53.373047 36.146642 53.373047 36.5C53.373047 36.765198 53.156381 37 52.8125 37L51.021484 37L50.972656 37.947266C50.703749 43.103319 46.902152 47.301172 41.941406 48.185547L41.658203 48.236328L41.443359 48.431641C41.051784 48.787571 40.558016 49 40 49C39.441984 49 38.947735 48.786365 38.554688 48.429688L38.341797 48.236328L38.058594 48.1875C33.097714 47.302185 29.296243 43.102242 29.027344 37.947266L28.976562 37L27.1875 37C26.845222 37 26.625 36.764393 26.625 36.5C26.625 36.146642 26.55725 35.982169 26.492188 35.742188C26.427128 35.502206 26.347783 35.242205 26.271484 34.982422C26.118886 34.462857 26 33.875925 26 33.800781C26 33.399535 26.3274 33.079612 26.787109 33.033203C26.805789 33.042303 26.810841 33.043886 26.832031 33.054688C26.999341 33.139978 27.236729 33.273148 27.494141 33.423828L29 34.304688L29 31.052734C29 28.556878 30.243166 26.882522 31.914062 25.714844C33.584959 24.547166 35.711613 24 37 24C40.581039 24 43.231096 23.214981 44.992188 22.410156C46.300865 21.812086 46.645356 21.446204 46.998047 21.15625 z M 34.5 33 A 1.5 1.5 0 0 0 33 34.5 A 1.5 1.5 0 0 0 34.5 36 A 1.5 1.5 0 0 0 36 34.5 A 1.5 1.5 0 0 0 34.5 33 z M 45.5 33 A 1.5 1.5 0 0 0 44 34.5 A 1.5 1.5 0 0 0 45.5 36 A 1.5 1.5 0 0 0 47 34.5 A 1.5 1.5 0 0 0 45.5 33 z M 61.486328 46L60.058594 49.568359C57.887594 50.198359 55.905391 51.340344 54.275391 52.902344L50.478516 52.355469L48 56.644531L50.373047 59.662109C50.100047 60.769109 49.962891 61.889 49.962891 63C49.962891 64.111 50.100047 65.230891 50.373047 66.337891L48 69.355469L50.478516 73.644531L54.277344 73.097656C55.907344 74.659656 57.887594 75.802641 60.058594 76.431641L61.484375 80L66.4375 80L67.865234 76.431641C70.036234 75.802641 72.016484 74.661609 73.646484 73.099609L77.445312 73.646484L79.923828 69.355469L77.550781 66.339844C77.823781 65.231844 77.962891 64.111 77.962891 63C77.962891 61.889 77.823781 60.769109 77.550781 59.662109L79.923828 56.644531L77.445312 52.355469L73.646484 52.902344C72.016484 51.340344 70.036234 50.197359 67.865234 49.568359L66.439453 46L61.486328 46 z M 62.839844 48L65.085938 48L66.384766 51.25L66.880859 51.373047C69.053859 51.916047 71.022172 53.053203 72.576172 54.658203L72.931641 55.025391L76.390625 54.527344L77.513672 56.472656L75.353516 59.21875L75.492188 59.710938C75.804187 60.800938 75.962891 61.907 75.962891 63C75.962891 64.093 75.804187 65.199063 75.492188 66.289062L75.353516 66.78125L77.513672 69.527344L76.390625 71.472656L72.931641 70.974609L72.576172 71.341797C71.021172 72.946797 69.053859 74.083953 66.880859 74.626953L66.384766 74.75L65.085938 78L62.839844 78L61.539062 74.75L61.044922 74.626953C58.871922 74.083953 56.901656 72.946797 55.347656 71.341797L54.992188 70.974609L51.533203 71.472656L50.410156 69.527344L52.570312 66.78125L52.431641 66.289062C52.119641 65.199062 51.962891 64.093 51.962891 63C51.962891 61.907 52.119641 60.800938 52.431641 59.710938L52.570312 59.21875L50.410156 56.472656L51.533203 54.527344L54.992188 55.025391L55.347656 54.658203C56.902656 53.053203 58.871922 51.916047 61.044922 51.373047L61.539062 51.25L62.839844 48 z M 34 48.826172C35.06863 49.393239 36.22533 49.819997 37.455078 50.066406C38.157718 50.622293 39.02636 51 40 51C40.971171 51 41.837595 50.622272 42.539062 50.068359C43.770985 49.822351 44.929844 49.394065 46 48.826172L46 51.410156C45.611474 51.939045 45.073277 52.625744 44.425781 53.316406C43.095367 54.735515 41.341667 56 40 56C38.658333 56 36.904633 54.735515 35.574219 53.316406C34.926723 52.625744 34.388526 51.939045 34 51.410156L34 48.826172 z M 32.498047 52.736328C32.916302 53.298754 33.454023 53.980385 34.113281 54.683594C34.865603 55.48607 35.75191 56.325999 36.755859 56.960938L33.009766 59.458984L31.042969 53.972656L32.498047 52.736328 z M 63.962891 55C59.551891 55 55.962891 58.589 55.962891 63C55.962891 67.411 59.551891 71 63.962891 71C68.373891 71 71.962891 67.411 71.962891 63C71.962891 58.589 68.373891 55 63.962891 55 z M 29.355469 55.191406L31.990234 62.541016L38.011719 58.527344L38.742188 60.355469L38.076172 69L16 69L16 65C16 62.40156 20.512893 59.101098 29.355469 55.191406 z M 63.962891 57C67.271891 57 69.962891 59.691 69.962891 63C69.962891 66.309 67.271891 69 63.962891 69C60.653891 69 57.962891 66.309 57.962891 63C57.962891 59.691 60.653891 57 63.962891 57 z M 19 65 A 1 1 0 0 0 18 66 A 1 1 0 0 0 19 67 A 1 1 0 0 0 20 66 A 1 1 0 0 0 19 65 z M 23 65 A 1 1 0 0 0 22 66 A 1 1 0 0 0 23 67 A 1 1 0 0 0 24 66 A 1 1 0 0 0 23 65 z M 27 65 A 1 1 0 0 0 26 66 A 1 1 0 0 0 27 67 A 1 1 0 0 0 28 66 A 1 1 0 0 0 27 65 z M 31 65 A 1 1 0 0 0 30 66 A 1 1 0 0 0 31 67 A 1 1 0 0 0 32 66 A 1 1 0 0 0 31 65 z M 35 65 A 1 1 0 0 0 34 66 A 1 1 0 0 0 35 67 A 1 1 0 0 0 36 66 A 1 1 0 0 0 35 65 z" fill="#6C6C6C" />
</svg>