<svg xmlns="http://www.w3.org/2000/svg" viewBox="0 0 24 24">
  <path d="M3 4C1.897 4 1 4.897 1 6L1 18C1 19.103 1.897 20 3 20L21 20C22.103 20 23 19.103 23 18L23 6C23 4.897 22.103 4 21 4L3 4 z M 6 9C7.105 9 8 9.895 8 11L8 15L7 15L7 13L5 13L5 15L4 15L4 11C4 9.895 4.895 9 6 9 z M 10.007812 9L12.050781 9C12.355781 9 12.629141 9.0494375 12.869141 9.1484375C13.109141 9.2474375 13.312469 9.3855 13.480469 9.5625C13.648469 9.7395 13.777187 9.9484063 13.867188 10.191406C13.956188 10.435406 14 10.701328 14 10.986328C14 10.991328 13.998047 10.995 13.998047 11L13.998047 13C13.998047 13.005 14 13.008672 14 13.013672C14 13.299672 13.956188 13.563641 13.867188 13.806641C13.777188 14.049641 13.648469 14.2605 13.480469 14.4375C13.312469 14.6145 13.109141 14.752563 12.869141 14.851562C12.629141 14.951563 12.355781 15 12.050781 15L11.21875 15L10.007812 15L10.007812 9 z M 17.966797 9.0078125C18.334797 9.0078125 18.623891 9.0817656 18.962891 9.2597656C19.288891 9.4307656 19.545516 9.6724688 19.728516 9.9804688C19.905516 10.281469 20 10.634 20 11L19 11C19 10.813 18.953187 10.637188 18.867188 10.492188C18.779187 10.344188 18.659094 10.230531 18.496094 10.144531C18.321094 10.052531 18.196797 10.009766 17.966797 10.009766C17.614797 10.009766 17.446766 10.098719 17.259766 10.261719C17.082766 10.416719 17 10.598937 17 10.835938C17 10.996937 17.103672 11.165578 17.263672 11.267578C17.384672 11.344578 17.698609 11.417422 17.974609 11.482422C18.622609 11.634422 19.358281 11.805609 19.738281 12.349609C19.912281 12.598609 20 12.91225 20 13.28125C20 13.76125 19.641 15.009766 18 15.009766C16.748 15.009766 16 14.258 16 13L17 13C17 13.707 17.299 14.009766 18 14.009766C18.907 14.009766 18.995 13.445437 19 13.273438C19 13.125438 18.970969 12.998828 18.917969 12.923828C18.756969 12.692828 18.173094 12.554078 17.746094 12.455078C17.358094 12.364078 16.992516 12.279328 16.728516 12.111328C16.279516 11.825328 16 11.337938 16 10.835938C16 10.310937 16.207562 9.8518125 16.601562 9.5078125C17.001562 9.1578125 17.410797 9.0078125 17.966797 9.0078125 z M 6 10C5.449 10 5 10.449 5 11L5 12L7 12L7 11C7 10.449 6.551 10 6 10 z M 11.007812 10L11.007812 14L11.21875 14L12.050781 14C12.223781 14 12.370281 13.975734 12.488281 13.927734C12.596281 13.882734 12.684906 13.825953 12.753906 13.751953C12.828906 13.672953 12.884734 13.577938 12.927734 13.460938C12.970734 13.343937 12.994047 13.206594 12.998047 13.058594L12.998047 13L12.998047 11L12.998047 10.9375L12.998047 10.935547C12.994047 10.788547 12.970734 10.653156 12.927734 10.535156C12.885734 10.421156 12.828906 10.327047 12.753906 10.248047C12.684906 10.175047 12.596328 10.117266 12.486328 10.072266C12.370328 10.025266 12.222781 10 12.050781 10L11.007812 10 z" fill="#6C6C6C" />
</svg>