<svg xmlns="http://www.w3.org/2000/svg" width="512" height="512" viewBox="0 0 512 512"><path fill="#D62127" d="M7.9,256C7.9,119,119,7.9,256,7.9C393,7.9,504.1,119,504.1,256c0,137-111.1,248.1-248.1,248.1C119,504.1,7.9,393,7.9,256z"/><path fill="#CA842A" d="M210.2 205.6L78.6 183.2 177.6 254zM299.6 205.6L431.3 183.2 332.2 254z"/><path fill="#EDB20F" d="M431.2,183.2c0,0-92.7,54.6-99.1,48.2c-7.1-7.1-69-120.5-77.9-120.5c-8.9,0-69.5,113.4-76.6,120.5c-6.4,6.4-99.1-48.2-99.1-48.2C66.1,190,144,383.4,144,383.4c0,15.5,12.5,28,28,28h82.2h83.5c15.5,0,28-12.5,28-28C365.7,383.4,443.6,190,431.2,183.2z"/><path fill="#FFC50B" d="M254.2,110.8c-8.9,0-69.5,113.4-76.6,120.5c-6.4,6.4-99.1-48.2-99.1-48.2C66.1,190,144,383.4,144,383.4c0,15.5,12.5,28,28,28h82.2V110.8z"/><path fill="#FFC50B" d="M280.4,110.8c0,14.9-12,26.9-26.9,26.9c-14.9,0-26.9-12-26.9-26.9c0-14.9,12-26.9,26.9-26.9C268.4,83.9,280.4,95.9,280.4,110.8z"/><path fill="#B8972F" d="M366.1,383.4c0,15.5-12.5,28-28,28h-166c-15.5,0-28-12.5-28-28c0,0,64.6-3.8,110.9-3.8C301.2,379.5,366.1,383.4,366.1,383.4z"/><path fill="#C4A12E" d="M254.2,411.4h-82.2c-15.5,0-28-12.5-28-28c0,0,64.6-3.8,110.9-3.8L254.2,411.4z"/><path fill="#F6E568" d="M231.7,116.1c-4.7-4.7,0.5-17.8,5.2-22.5c4.7-4.7,16.2-9.2,20.9-4.5S236.5,120.9,231.7,116.1z" opacity=".4"/><path fill="#FFC50B" d="M449.3,184.5c0,9.8-7.9,17.7-17.7,17.7c-9.8,0-17.7-7.9-17.7-17.7c0-9.8,7.9-17.7,17.7-17.7C441.4,166.9,449.3,174.8,449.3,184.5z"/><path fill="#FFC50B" d="M417.3 188.1c-3.1-3.1.3-11.7 3.4-14.8 3.1-3.1 10.6-6.1 13.7-2.9C437.6 173.4 420.4 191.2 417.3 188.1zM95.9 184.5c0 9.8-7.9 17.7-17.7 17.7-9.8 0-17.7-7.9-17.7-17.7 0-9.8 7.9-17.7 17.7-17.7C88 166.9 95.9 174.8 95.9 184.5z"/><path fill="#F6E568" d="M63.9,188.1c-3.1-3.1,0.3-11.7,3.4-14.8c3.1-3.1,10.6-6.1,13.7-2.9C84.2,173.4,67,191.2,63.9,188.1z" opacity=".4"/><path fill="#A8213B" d="M253.9 228.1L223 282.8 253.9 337.4 284.7 282.8z"/><path fill="#951D38" d="M223 282.8L253.9 337.4 284.7 282.8z"/><path fill="#C0355A" d="M253.9 228.1L223 282.8 253.9 337.4z"/><path fill="#B72D4C" d="M253.9 282.8L223 282.8 253.9 337.4z"/></svg>