<svg xmlns="http://www.w3.org/2000/svg" viewBox="0 0 32 32">
  <path d="M3 7L3 8L3 25L29 25L29 7L3 7 z M 5 9L27 9L27 23L5 23L5 9 z M 9.2226562 12L7 18.841797L7 20L9 20L9 19.158203L9.0507812 19L10.949219 19L11 19.158203L11 20L13 20L13 18.841797L10.777344 12L9.2226562 12 z M 14 12L14 20L16 20C17.64497 20 19 18.64497 19 17L19 15C19 13.35503 17.64497 12 16 12L14 12 z M 22.5 12C21.116667 12 20 13.116667 20 14.5C20 15.883333 21.116667 17 22.5 17C22.716667 17 23 17.283333 23 17.5C23 17.8 22.881481 18 22.5 18C22.131818 18 22.075546 17.925839 22.0625 17.912109C22.049454 17.898376 22 17.832943 22 17.599609L20 17.599609C20 18.166276 20.151327 18.802795 20.613281 19.289062C21.075236 19.77533 21.768182 20 22.5 20C23.918519 20 25 18.8 25 17.5C25 16.116667 23.883333 15 22.5 15C22.283333 15 22 14.716667 22 14.5C22 14.283333 22.283333 14 22.5 14C22.766667 14 22.841734 14.06536 22.900391 14.126953C22.959048 14.188543 23 14.288486 23 14.400391L25 14.400391C25 13.812295 24.790952 13.211457 24.349609 12.748047C23.908266 12.284637 23.233333 12 22.5 12 z M 16 14C16.56503 14 17 14.43497 17 15L17 17C17 17.56503 16.56503 18 16 18L16 14 z M 10 16.080078L10.298828 17L9.7011719 17L10 16.080078 z" fill="#6C6C6C" />
</svg>