<svg xmlns="http://www.w3.org/2000/svg" viewBox="0 0 48 48"><path fill="#7bc981" fill-rule="evenodd" d="M37.705 11L1 21 6 40 42.882 30.319z" clip-rule="evenodd"/><path fill="#105f1c" fill-rule="evenodd" d="M10.35 26.683A2 2 0 1 0 10.35 30.683A2 2 0 1 0 10.35 26.683Z" clip-rule="evenodd" transform="rotate(-14.999 10.35 28.685)"/><path fill="#105f1c" fill-rule="evenodd" d="M33.532 20.471A2 2 0 1 0 33.532 24.471A2 2 0 1 0 33.532 20.471Z" clip-rule="evenodd" transform="rotate(-14.999 33.532 22.471)"/><path fill="#105f1c" fill-rule="evenodd" d="M21.941 19.577A6 6 0 1 0 21.941 31.577A6 6 0 1 0 21.941 19.577Z" clip-rule="evenodd" transform="rotate(-14.999 21.942 25.578)"/><path fill="#105f1c" d="M37.705,11L1,21l5,19l36.882-9.681L37.705,11z M36.291,13.45l4.141,15.455l-32.841,8.8L3.45,22.249 L36.291,13.45"/><path fill="#105f1c" d="M2.225 21.542l.903 3.37c.487.197 1.035.252 1.581.105 1.334-.357 2.125-1.728 1.768-3.062-.146-.546-.468-.994-.882-1.317L2.225 21.542zM36.998 12.225l-3.37.903c-.197.486-.252 1.035-.105 1.581.357 1.334 1.728 2.125 3.062 1.768.546-.146.994-.468 1.317-.882L36.998 12.225zM40.754 26.241c-.486-.197-1.035-.252-1.581-.105-1.334.358-2.125 1.728-1.768 3.062.146.546.468.994.882 1.317l3.37-.903L40.754 26.241zM10.254 38.026c.197-.487.252-1.035.105-1.581-.358-1.334-1.728-2.125-3.062-1.768-.546.146-.994.468-1.317.882l.903 3.37L10.254 38.026z"/><path fill="#a2d7a5" fill-rule="evenodd" d="M35 0L2.091 19 12.091 36.32 45 17z" clip-rule="evenodd"/><path fill="#2d9037" fill-rule="evenodd" d="M13.153 22.16A2 2 0 1 0 13.153 26.16A2 2 0 1 0 13.153 22.16Z" clip-rule="evenodd" transform="rotate(-30 13.152 24.16)"/><path fill="#2d9037" fill-rule="evenodd" d="M33.938 10.16A2 2 0 1 0 33.938 14.16A2 2 0 1 0 33.938 10.16Z" clip-rule="evenodd" transform="rotate(-30 33.937 12.162)"/><path fill="#2d9037" fill-rule="evenodd" d="M23.546 12.16A6 6 0 1 0 23.546 24.16A6 6 0 1 0 23.546 12.16Z" clip-rule="evenodd" transform="rotate(-30 23.544 18.161)"/><path fill="#2d9037" d="M35,0L2.091,19l10,17.32L45,17L35,0z M34.268,2.732l8,13.856l-29.445,17l-8-13.856L34.268,2.732"/><path fill="#2d9037" d="M3.457 19.366l1.745 3.022c.521.064 1.065-.025 1.555-.308 1.196-.69 1.606-2.219.915-3.415-.282-.489-.709-.839-1.193-1.044L3.457 19.366zM34.634 1.366l-3.022 1.744c-.064.521.025 1.065.308 1.555.69 1.196 2.219 1.605 3.415.915.489-.283.839-.709 1.044-1.193L34.634 1.366zM41.889 13.933c-.521-.064-1.065.025-1.555.307-1.196.691-1.605 2.219-.915 3.415.283.489.709.839 1.193 1.044l3.022-1.744L41.889 13.933zM15.479 33.21c.064-.521-.025-1.065-.307-1.555-.691-1.196-2.219-1.605-3.415-.915-.489.282-.839.709-1.043 1.192l1.745 3.022L15.479 33.21z"/><path fill="#b9ddfc" d="M42.1,37c1.4-1.4,3.9-4.1,3.9-6c0-2.7-2.2-4-5-4s-5,1.3-5,4c0,1.9,2.5,4.6,3.9,6 c-1.4,1.4-3.9,4.1-3.9,6c0,2.7,2.2,4,5,4s5-1.3,5-4C46,41.1,43.5,38.4,42.1,37z"/><path fill="#b9ddfc" d="M42.1,37c1.4-1.4,3.9-4.1,3.9-6c0-2.7-2.2-4-5-4s-5,1.3-5,4c0,1.9,2.5,4.6,3.9,6 c-1.4,1.4-3.9,4.1-3.9,6c0,2.7,2.2,4,5,4s5-1.3,5-4C46,41.1,43.5,38.4,42.1,37z"/><path fill="#6e4c40" d="M36,46h10v-2H36V46z M46,30H36v-2h10V30z"/><path fill="#8e6e62" d="M34,48h14v-2H34V48z M48,28H34v-2h14V28z"/><path fill="#f90" d="M38.4,32c0.5,0.9,1.5,2.1,2.6,3.3c1.2-1.2,2.1-2.4,2.6-3.3H38.4z M38,44c1-2,3-4,3-4s2,2,3,4H38z"/></svg>