<svg xmlns="http://www.w3.org/2000/svg" viewBox="0 0 50 50">
  <path d="M11 0C9.897 0 9 0.897 9 2L9 19C9 20.103 9.897 21 11 21L13.546875 21C13.341875 20.357 13.197422 19.687 13.107422 19L11 19L11 2L38 2L38.001953 18.865234C38.499953 19.354234 38.945984 19.894516 39.333984 20.478516C39.739984 20.111516 40 19.588 40 19L40 2C40 0.897 39.103 0 38 0L11 0 z M 24.5 6C23.083334 6 21.893559 6.5672556 21.126953 7.4296875C20.360347 8.2921194 20 9.4027779 20 10.5C20 11.597222 20.360347 12.707881 21.126953 13.570312C21.893559 14.432745 23.083334 15 24.5 15C25.916666 15 27.106441 14.432744 27.873047 13.570312C28.639653 12.707882 29 11.597222 29 10.5C29 9.4027779 28.639653 8.2921194 27.873047 7.4296875C27.106441 6.5672556 25.916666 6 24.5 6 z M 24.5 8C25.416666 8 25.976893 8.3077444 26.376953 8.7578125C26.777013 9.2078806 27 9.8472221 27 10.5C27 11.152778 26.777013 11.792119 26.376953 12.242188C25.976893 12.692255 25.416666 13 24.5 13C23.583334 13 23.023107 12.692256 22.623047 12.242188C22.222987 11.792118 22 11.152778 22 10.5C22 9.8472221 22.222987 9.2078806 22.623047 8.7578125C23.023107 8.3077444 23.583334 8 24.5 8 z M 18.005859 10.587891C16.160859 12.321891 15 14.775 15 17.5C15 19.268594 15.491906 20.920303 16.337891 22.337891C14.89163 23.784151 14 25.785043 14 28C14 30.969534 15.607931 33.547305 18 34.927734L18 47 A 1.0001 1.0001 0 0 0 18.292969 47.707031L20.292969 49.707031 A 1.0001 1.0001 0 0 0 21 50L23 50 A 1.0001 1.0001 0 0 0 23.707031 49.707031L25.707031 47.707031 A 1.0001 1.0001 0 0 0 26 47L26 45 A 1.0001 1.0001 0 0 0 25.707031 44.292969L24.914062 43.5L25.707031 42.707031 A 1.0001 1.0001 0 0 0 26 42L26 40 A 1.0001 1.0001 0 0 0 25.832031 39.445312L25.201172 38.5L25.832031 37.554688 A 1.0001 1.0001 0 0 0 26 37L26 34.927734C26.722771 34.510633 27.371339 33.983333 27.927734 33.369141C29.622602 34.082594 31.505554 34.181908 33.251953 33.666016L41.292969 41.707031 A 1.0001 1.0001 0 0 0 42 42L45 42 A 1.0001 1.0001 0 0 0 45.707031 41.707031L46.707031 40.707031 A 1.0001 1.0001 0 0 0 47 40L47 37 A 1.0001 1.0001 0 0 0 46.707031 36.292969L45.707031 35.292969 A 1.0001 1.0001 0 0 0 45 35L44 35L44 34 A 1.0001 1.0001 0 0 0 43.707031 33.292969L41.707031 31.292969 A 1.0001 1.0001 0 0 0 41 31L40 31L40 30 A 1.0001 1.0001 0 0 0 39.707031 29.292969L38.664062 28.25C39.460018 25.541608 38.787727 22.498664 36.644531 20.355469C35.844267 19.555204 34.918457 18.962623 33.931641 18.572266C33.972627 18.219938 34 17.863371 34 17.5C34 14.775 32.840094 12.321891 30.996094 10.587891C30.985094 11.446891 30.810094 12.265672 30.496094 13.013672C31.436094 14.266672 32 15.816 32 17.5C32 17.695423 31.989682 17.888493 31.974609 18.080078C31.650595 18.040227 31.325944 18.011719 31 18.011719C28.959343 18.011719 26.918263 18.792675 25.355469 20.355469C25.267716 20.443221 25.191617 20.533451 25.111328 20.623047C24.155797 20.221251 23.104412 20 22 20C20.516313 20 19.134273 20.408302 17.945312 21.107422C17.350995 20.035513 17 18.811378 17 17.5C17 15.816 17.564859 14.266672 18.505859 13.013672C18.191859 12.265672 18.016859 11.446891 18.005859 10.587891 z M 31 19.988281C31.186858 19.988281 31.374291 19.997716 31.560547 20.015625C31.559167 20.019484 31.558027 20.023488 31.556641 20.027344C31.809001 20.047805 32.059455 20.094495 32.308594 20.142578C33.37051 20.386364 34.385522 20.924585 35.230469 21.769531C37.606881 24.145944 37.606881 27.854056 35.230469 30.230469C33.545913 31.915025 31.209851 32.312819 29.136719 31.609375C29.68448 30.524908 30 29.30172 30 28C30 27.693934 29.980455 27.392666 29.947266 27.095703C29.943342 27.061669 29.937953 27.028028 29.933594 26.994141C29.956175 26.994894 29.977234 27 30 27C31.105 27 32 26.105 32 25C32 23.895 31.105 23 30 23C29.47556 23 29.003089 23.20714 28.646484 23.537109C28.168128 22.82453 27.573547 22.200068 26.896484 21.675781C28.066399 20.563474 29.528784 19.988281 31 19.988281 z M 22 22C22.986731 22 23.906356 22.231291 24.71875 22.634766L24.90625 22.736328C25.832335 23.242594 26.606521 23.981529 27.148438 24.882812C27.150671 24.886556 27.152071 24.890782 27.154297 24.894531C27.414094 25.328785 27.618033 25.801875 27.761719 26.302734C27.774845 26.348937 27.784809 26.396672 27.796875 26.443359C27.847217 26.636295 27.886492 26.834369 27.917969 27.035156C27.928775 27.104819 27.94074 27.173624 27.949219 27.244141C27.979333 27.49187 28 27.742531 28 28C28 28.30816 27.971137 28.60692 27.927734 28.900391C27.921231 28.945456 27.915665 28.990454 27.908203 29.035156C27.748803 29.967016 27.382047 30.818326 26.851562 31.546875L26.595703 31.898438C25.504331 33.191011 23.866667 34 22 34C18.629915 34 16 31.370085 16 28C16 26.42078 16.582437 25.008927 17.542969 23.949219C18.253621 24.713085 19.089201 25.357245 20.015625 25.855469C20.012074 25.904207 20 25.950351 20 26C20 27.105 20.895 28 22 28C23.105 28 24 27.105 24 26C24 24.895 23.105 24 22 24C21.699117 24 21.41607 24.070566 21.160156 24.189453C20.399853 23.808653 19.707712 23.314644 19.121094 22.710938C19.970764 22.256751 20.949068 22 22 22 z M 37.783203 30.197266L38 30.414062L38 32 A 1.0001 1.0001 0 0 0 39 33L40.585938 33L42 34.414062L42 36 A 1.0001 1.0001 0 0 0 43 37L44.585938 37L45 37.414062L45 39.585938L44.585938 40L42.414062 40L35.201172 32.787109C35.713149 32.468077 36.198909 32.090154 36.644531 31.644531C37.090537 31.198525 37.464483 30.710035 37.783203 30.197266 z M 20 35.738281C20.640198 35.902454 21.30741 36 22 36C22.69259 36 23.359802 35.902454 24 35.738281L24 36.697266L23.167969 37.945312 A 1.0001 1.0001 0 0 0 23.167969 39.054688L24 40.302734L24 41.585938L22.792969 42.792969 A 1.0001 1.0001 0 0 0 22.792969 44.207031L24 45.414062L24 46.585938L22.585938 48L21.414062 48L20 46.585938L20 35.738281 z" fill="#2FC2C0" />
</svg>