<svg xmlns="http://www.w3.org/2000/svg" viewBox="0 0 64 64">
  <path d="M11 4C9.347656 4 8 5.347656 8 7L8 52L4 52C2.898438 52 2 52.898438 2 54L2 56C2 58.207031 3.792969 60 6 60L54 60C56.207031 60 58 58.207031 58 56L58 7C58 5.347656 56.652344 4 55 4 Z M 11 6L55 6C55.550781 6 56 6.449219 56 7L56 56C56 57.101563 55.101563 58 54 58C52.898438 58 52 57.101563 52 56L52 54C52 52.898438 51.101563 52 50 52L10 52L10 7C10 6.449219 10.449219 6 11 6 Z M 20 12C19.445313 12 19 12.445313 19 13L19 14C17.347656 14 16 15.347656 16 17L16 20C16 21.652344 17.347656 23 19 23L21 23C21.550781 23 22 23.449219 22 24L22 27C22 27.550781 21.550781 28 21 28L19 28C18.449219 28 18 27.550781 18 27L18 26C18 25.445313 17.554688 25 17 25C16.445313 25 16 25.445313 16 26L16 27C16 28.652344 17.347656 30 19 30L19 31C19 31.554688 19.445313 32 20 32C20.554688 32 21 31.554688 21 31L21 30C22.652344 30 24 28.652344 24 27L24 24C24 22.347656 22.652344 21 21 21L19 21C18.449219 21 18 20.550781 18 20L18 17C18 16.449219 18.449219 16 19 16L21 16C21.550781 16 22 16.449219 22 17L22 18C22 18.554688 22.445313 19 23 19C23.554688 19 24 18.554688 24 18L24 17C24 15.347656 22.652344 14 21 14L21 13C21 12.445313 20.554688 12 20 12 Z M 29 14C28.445313 14 28 14.445313 28 15C28 15.554688 28.445313 16 29 16L37 16C37.554688 16 38 15.554688 38 15C38 14.445313 37.554688 14 37 14 Z M 41 14C40.445313 14 40 14.445313 40 15C40 15.554688 40.445313 16 41 16L47 16C47.554688 16 48 15.554688 48 15C48 14.445313 47.554688 14 47 14 Z M 29 18C28.445313 18 28 18.445313 28 19C28 19.554688 28.445313 20 29 20L43 20C43.554688 20 44 19.554688 44 19C44 18.445313 43.554688 18 43 18 Z M 29 28C28.445313 28 28 28.445313 28 29C28 29.554688 28.445313 30 29 30L47 30C47.554688 30 48 29.554688 48 29C48 28.445313 47.554688 28 47 28 Z M 29 32C28.445313 32 28 32.445313 28 33C28 33.554688 28.445313 34 29 34L37 34C37.554688 34 38 33.554688 38 33C38 32.445313 37.554688 32 37 32 Z M 41 32C40.445313 32 40 32.445313 40 33C40 33.554688 40.445313 34 41 34L43 34C43.554688 34 44 33.554688 44 33C44 32.445313 43.554688 32 43 32 Z M 14 44C13.445313 44 13 44.445313 13 45L13 47C13 47.554688 13.445313 48 14 48C14.554688 48 15 47.554688 15 47L15 45C15 44.445313 14.554688 44 14 44 Z M 19 44C18.445313 44 18 44.445313 18 45L18 47C18 47.554688 18.445313 48 19 48C19.554688 48 20 47.554688 20 47L20 45C20 44.445313 19.554688 44 19 44 Z M 24 44C23.445313 44 23 44.445313 23 45L23 47C23 47.554688 23.445313 48 24 48C24.554688 48 25 47.554688 25 47L25 45C25 44.445313 24.554688 44 24 44 Z M 29 44C28.445313 44 28 44.445313 28 45L28 47C28 47.554688 28.445313 48 29 48C29.554688 48 30 47.554688 30 47L30 45C30 44.445313 29.554688 44 29 44 Z M 34 44C33.445313 44 33 44.445313 33 45L33 47C33 47.554688 33.445313 48 34 48C34.554688 48 35 47.554688 35 47L35 45C35 44.445313 34.554688 44 34 44 Z M 39 44C38.445313 44 38 44.445313 38 45L38 47C38 47.554688 38.445313 48 39 48C39.554688 48 40 47.554688 40 47L40 45C40 44.445313 39.554688 44 39 44 Z M 44 44C43.445313 44 43 44.445313 43 45L43 47C43 47.554688 43.445313 48 44 48C44.554688 48 45 47.554688 45 47L45 45C45 44.445313 44.554688 44 44 44 Z M 49 44C48.445313 44 48 44.445313 48 45L48 47C48 47.554688 48.445313 48 49 48C49.554688 48 50 47.554688 50 47L50 45C50 44.445313 49.554688 44 49 44 Z M 54 44C53.445313 44 53 44.445313 53 45L53 47C53 47.554688 53.445313 48 54 48C54.554688 48 55 47.554688 55 47L55 45C55 44.445313 54.554688 44 54 44 Z M 4 54L50 54L50 56C50 56.730469 50.210938 57.410156 50.558594 58L6 58C4.898438 58 4 57.101563 4 56Z" fill="#2FC2C0" />
</svg>