<svg xmlns="http://www.w3.org/2000/svg" width="512" height="512" viewBox="0 0 512 512"><path fill="#FEBF10" d="M268,270.2c-2.2-2.7-5.9-6.9-9.5-7.5c-5.5-0.9-8.7,6.5-10.6,11.8c2.6,0,5.2,0,7.8-0.1c3.9-0.2,10,0,13.4-2.4C268.8,271.5,268.3,270.6,268,270.2z"/><path fill="#D6E5E5" d="M307.6,125.1c-6.1-6.3-13.3-10.4-22.1-11c-14.8-0.9-29.4,1.5-44,3.1c-12.3,1.3-24.7,0.4-37,1.8c-10.3,1.1-20.2,4.2-25.2,13.7c0,0.1,0,0.2,0,0.3c0,18.4,0.1,37.9,3.5,56c3.1,16.1,11,31.9,27.9,36.8c14.4,4.2,30.7,4.5,45.5,3.9c15.7-0.6,33.1-2.5,47-10.5c15.3-8.8,21.3-24.7,21.4-41.9C324.7,159.5,320.3,138.5,307.6,125.1z"/><path fill="#FEBF10" d="M215.5 447c-3.1-6.5-17.9-10-18.2 0-.1 2.4-1.6 4.1-3.4 4.8 1.8 5.5 6.7 10.4 12.6 9.6C212.7 460.6 218.4 453.1 215.5 447zM264.5 339.1c-8.1 1-13.8 7.8-13.2 15.9.3 12.9 22.4 4.6 24.6-3.9C277.7 344.1 271.4 338.2 264.5 339.1zM273.8 390c-6.5.3-16.6 3.7-12.8 11.8.9 2.1.4 3.8-.8 4.9 1.2 1.8 3.2 2.9 6.3 2.8 5.4-.2 11.9-2.7 14.4-7.9C283.5 395.9 280.3 389.7 273.8 390zM247.1 300.4c0 5.7 1.9 12.1 7.2 14.9 4.9 2.5 10 2.2 14.9.7v-15.5H247.1zM343.9 40.4c-4.7 0-9.4.1-14 .5-3.6.3-13 .1-15.5 3.3-.9 1.1-.6 4.7-.5 6.3.1 3.1.4 6.2.8 9.3 8.4-3.3 17.8-3.5 26-7.1 2.1-.9 3.8-.3 5 .9C345.1 49.2 344.5 44.8 343.9 40.4zM209.3 402.8c-.4-4.5-3.9-8.8-8.8-8.4-5.7.5-5.9 6-5.2 10.6.6 3.7-2.5 5.5-5.4 5.1C196 415.8 210.1 412.7 209.3 402.8zM341.2 389.5c-1.2-7.8-10.4-10.3-16-5.5-3.4 2.9-5.4 7.2-5.6 11.4.6.5 1.2 1.3 1.5 2.3 1.9 5.8 6.3 8.8 12 5.4C337.5 400.4 342 395.2 341.2 389.5z"/><path fill="#F6851F" d="M203.4,274.6c-3.4-1.8-8.3-3.8-12-2.5c-3.2,1.2-2.9,5.1-2.2,8.9c0.9,4.7-4.5,6.3-7.7,4.2c-0.1,0.1-0.3,0.2-0.5,0.4c-1.1,0.7-1.1,0.7-1.3,2.4c-0.1,0.8,0.5,3.2,1,4.7c1.7,4.2,4.5,8.1,7.8,11.1c6.6,6,16.5,10.1,21.7,0.2C216.1,293.1,215,280.9,203.4,274.6z"/><path fill="#FEBF10" d="M201 348.1c-6.9 1.2-12.4 8-11.7 14.9.2 1.8-.5 3.1-1.5 4 6.7 3.5 18.6-.5 21.7-6.9C212.1 354.5 207.6 347 201 348.1zM278 440.2c-3.4 1.1-8.1 4.1-8.2 7.6 1 .8 1.6 2 1.5 3.5.1.1.2.2.3.3 2.5 2.3 1.8 5.6-.1 7.4.9 1.9 2.7 2.9 5.9 2.6 4.8-.5 10.3-3.8 11.3-8.9C289.8 446.5 285.5 437.9 278 440.2z"/><path fill="#EF4823" d="M324.7,258.5c-3.8-0.7-8.4-2.5-10.8,1.7c-2.2,3.8-3.4,8-4.7,12.1c0,0,0,0,0,0c-0.4,9.6-1.3,22.8,9.2,26.7c9,3.3,14.1-12.5,15-18.6C334.5,272.8,334.6,260.3,324.7,258.5z"/><path fill="#FEBF10" d="M335 344.3c-1.6-4.9-6.4-8.3-11.6-7.9-6.1.4-8.5 4.8-8.1 10.6.1 1.3-.3 2.4-.8 3.2 3.1 4.5 8.4 8 14.1 7.1C334.4 356.4 336.7 349.6 335 344.3zM334.4 435.1c-4.8-1.7-20.4 2.2-16 9.5 1.3 2.2.8 4.4-.5 5.9 1.3 4.6 4.2 7.8 9.6 6.8 5.3-1 10.8-5.3 13.1-10.1C343.2 441.7 340.3 437.1 334.4 435.1z"/><path fill="#3AB37C" d="M368.7,357.8c-0.9-16.4-2.6-32.7-4.2-49c-2.4-25.3-3.6-50.7-5.1-76c-3.3-57.7-6.3-115.4-13.2-172.8c-0.5,0.9-1.3,1.7-2.4,2.2c-8.8,4-19.1,3.8-28,8c-0.1,0.1-0.2,0.1-0.3,0.1c0.2,3.4,0.1,6.8-0.4,10.1c-0.6,3.5-4.2,4.5-7.1,3.5c-14.2-4.9-29.4-5.1-44.4-5c-13.7,0.1-27.1,1.7-40.8,2.4c-22.1,1.1-46.8,2-61.2,21.5c-12.1,16.3-13.6,38.5-13.5,58.1c0.1,22.6,1,45.2,1.3,67.8c0.8,56.8,3.8,113.6,3.8,170.4c0,1.1-0.3,2-0.7,2.7c5.6,9.7,3.6,22.5,4.2,33.4c0.6,11.6,2.6,24.4,11.4,32.8c9.3,8.9,22.5,12.4,34.7,15.5c15.3,3.9,31,5.6,46.8,6c13.4,0.3,26.9,0,40.3-1c10.5-0.7,21.7-0.9,31.9-3.9c14.4-4.2,26-13.5,33.3-26.6C371.4,428.2,370.6,390.6,368.7,357.8z M350.6,385.9c2.3,10.7-3.8,21.4-13.4,26.2c-6.4,3.2-12.6,2.9-17.5-0.2c-1.9,0.5-4,0.2-5.5-1.7c-8.5-10.6-4.8-27.5,6.2-35C330.9,367.9,347.6,372.4,350.6,385.9z M179.8,357c2.3-9.9,11-18.7,21.4-19c12.1-0.4,21.8,11.3,18.5,23.2c-2.8,10.1-14,16.4-24,16.9c-11.2,0.6-20.1-5.2-22.4-16.3C172.4,357.6,176.5,355.9,179.8,357z M175.5,277.3c1.1-0.8,2.3-1,3.3-0.8c0-1.6,0.3-3.2,0.8-4.8c4.9-15,24.3-10.1,33.5-2.5c13.3,11,14.6,31.2,2.8,44.2C194.9,336.7,154.3,291.5,175.5,277.3z M177.3,405.8c-0.7-4.7,4.6-6.3,7.7-4.3c0.3-8.7,5.4-17.3,15.4-17c10,0.3,19.2,8,18.9,18.6C218.5,427.2,180.8,430.1,177.3,405.8z M205.1,471.4c-13.9-0.3-22.9-14-21.7-27c0.3-3.2,2.9-4.3,5.4-3.8c2.7-6.6,9-10.4,17.2-9.8c9.2,0.7,18,6.9,19.9,16.2C228.4,459.2,217.3,471.7,205.1,471.4z M211.3,236.3c-19.8-5.2-32.3-19.9-37-39.5c-4.9-20.3-5-42.2-5-63c0-0.4,0.1-0.9,0.1-1.3c-0.3-1-0.2-2.1,0.4-3.4c3.4-7.3,9.2-12.9,16.6-16c9.9-4.2,21-4.7,31.6-4.7c13.9,0,27.4-1.9,41.2-3.3c12.3-1.2,26.3-2.8,38.2,1.3c8.2,2.9,15.1,8.5,20.3,15.3c11.5,14.9,17,35,16.9,53.6c-0.1,17.2-4.5,35.6-18.4,46.9c-14.3,11.7-34.1,15.7-52.2,17c-9.7,0.7-19.3,0.6-29,0C227.3,238.8,218.9,238.3,211.3,236.3z M237.5,275c0-0.6,0.1-1.2,0.3-1.8c3.1-9,9.7-22.5,21.5-20.5c8.3,1.4,20.6,11.2,19.8,20.7c-0.6,7.6-10.1,9.7-16.2,10.4c-7.4,0.9-14.8,0.6-22.2,0.6C235.2,284.4,233.8,277.1,237.5,275z M237.4,296.4c0.2-2,1.2-3.1,2.5-3.6c0.6-1.4,2-2.4,4-2.4h30c2.6,0,5.4,1.7,5.4,4.6v24c0,2.4-1.1,4.2-3.3,5.1c-9.3,3.9-20.5,4.6-28.9-1.8C238.8,316.2,236.6,306.2,237.4,296.4z M241.3,355.8c-1-13.2,8.9-25.6,22.4-26.7c12.2-1,25,9.2,22.3,22.4C282,371.3,242,382.2,241.3,355.8z M249.4,396.4c0.2-1.2,0.7-2.1,1.4-2.7c2.9-8.2,13.1-13.7,22.3-13.7c6.2,0,12.6,1.6,15.8,7.4c2.9,5.2,3.7,11.1,1.7,16.8c-3.5,9.7-14.8,15.6-24.7,15.2C253,418.9,247.2,408.3,249.4,396.4z M277.4,471.7c-11.3,0.2-17.4-8-16.5-18.3c-3.6-8.9,3-19.3,12.9-22.4c13.5-4.2,25.3,6,24.9,19.9C298.5,462.1,288.5,471.5,277.4,471.7z M299.2,273c-0.2-0.7-0.2-1.4,0-2.3c0-0.3,0-0.7,0-1c0-1.5,0.6-2.7,1.4-3.5c1.6-5.2,3.5-10.6,7.3-14.5c5.1-5.1,12.1-4.6,18.6-3c15,3.7,18.9,18.7,16.8,32.4c-1.8,11.6-10.6,32-26,28c-7.5-1.9-14-8-16.4-15.4C298.8,286.9,299.1,280,299.2,273z M305.2,345.5c0.3-9.9,6.5-18.8,17.3-19.1c10.5-0.3,20.2,6.1,22.4,16.7c2.2,10.9-3.8,23-15.7,24.2c-11.4,1.1-21-6.3-25.7-16.3C302.4,348.6,303.4,346.5,305.2,345.5z M351,447.9c-2.9,9.8-12.7,17.8-22.7,19.4c-12.6,1.9-19.6-8.2-21-19.4c-0.2-1.3,0.1-2.3,0.6-3.1c-2.3-12.1,13-20.8,24.8-19.9C344.2,425.5,354.5,436.1,351,447.9z"/><path fill="#010101" d="M373.8,299.8c-3.7-42.2-5.1-84.6-7.7-126.9c-2.8-46.1-6.5-92.1-12.8-137.9c-0.4-2.9-2.5-4.6-5.4-4.6c-7.1,0-14.2,0.1-21.2,0.8c-6.3,0.6-14.6,1.3-19.3,6c-4.4,4.4-3.6,12-3.2,17.7c0.4,5.8,1.7,11.9,1.7,17.9c-4-1.2-8-2-12.5-2.5c-8.2-0.8-16.4-1.2-24.6-1.4c-15.1-0.3-30,1.4-45,2.2c-24.5,1.4-49.8,2.6-67.3,22.2c-13.7,15.3-17,36.9-18,56.7c-1,21.2,0.8,42.5,0.9,63.8c0.3,61.2,3.8,122.4,4,183.7c-1.8,1.9-2.6,5.1-0.3,7.6c3,3.3,3.2,8.9,3.5,13.1c0.4,5.9,0.1,11.7,0.3,17.6c0.4,10.4,2.4,20.8,7.3,30c10,18.6,33.5,24.5,52.5,28.8c25.8,5.8,53,5.6,79.3,4.1c19.3-1.1,39.6-1.8,56.4-12.5c28.1-17.9,35-55.2,36.7-85.9C380.9,366.6,376.7,333.2,373.8,299.8z M314.4,44.2c2.5-3.2,11.9-3,15.5-3.3c4.7-0.4,9.3-0.5,14-0.5c0.6,4.4,1.2,8.8,1.7,13.2c-1.1-1.3-2.9-1.8-5-0.9c-8.2,3.7-17.6,3.8-26,7.1c-0.3-3.1-0.6-6.2-0.8-9.3C313.8,49,313.5,45.4,314.4,44.2z M355,457.9c-7.3,13.1-18.9,22.4-33.3,26.6c-10.2,3-21.4,3.2-31.9,3.9c-13.4,0.9-26.8,1.3-40.3,1c-15.7-0.4-31.5-2.1-46.8-6c-12.2-3.1-25.3-6.6-34.7-15.5c-8.8-8.4-10.8-21.2-11.4-32.8c-0.6-10.9,1.4-23.6-4.2-33.4c0.4-0.7,0.7-1.6,0.7-2.7c0-56.8-3-113.6-3.8-170.4c-0.3-22.6-1.2-45.2-1.3-67.8c-0.1-19.6,1.4-41.8,13.5-58.1c14.4-19.5,39.1-20.4,61.2-21.5c13.6-0.7,27.1-2.3,40.8-2.4c14.9-0.1,30.2,0.1,44.4,5c3,1,6.5,0,7.1-3.5c0.6-3.3,0.6-6.7,0.4-10.1c0.1,0,0.2-0.1,0.3-0.1c8.9-4.2,19.2-4,28-8c1.1-0.5,1.9-1.3,2.4-2.2c6.8,57.4,9.9,115.1,13.2,172.8c1.4,25.3,2.7,50.7,5.1,76c1.6,16.3,3.2,32.6,4.2,49C370.6,390.6,371.4,428.2,355,457.9z"/><path fill="#010101" d="M317.7 121.7c-5.3-6.8-12.2-12.4-20.3-15.3-11.9-4.2-25.9-2.6-38.2-1.3-13.8 1.4-27.3 3.3-41.2 3.3-10.6 0-21.7.5-31.6 4.7-7.4 3.2-13.2 8.8-16.6 16-.6 1.2-.6 2.3-.4 3.4-.1.4-.1.8-.1 1.3 0 20.8.2 42.7 5 63 4.7 19.6 17.2 34.3 37 39.5 7.6 2 16 2.5 23.8 3 9.7.6 19.3.7 29 0 18-1.3 37.8-5.2 52.2-17 13.9-11.4 18.3-29.7 18.4-46.9C334.7 156.7 329.3 136.6 317.7 121.7zM303.2 219.2c-13.9 8-31.2 9.9-47 10.5-14.8.6-31.2.2-45.5-3.9-16.9-4.9-24.8-20.6-27.9-36.8-3.4-18.2-3.5-37.6-3.5-56 0-.1 0-.2 0-.3 5-9.5 14.9-12.6 25.2-13.7 12.3-1.3 24.7-.5 37-1.8 14.6-1.5 29.2-3.9 44-3.1 8.9.5 16.1 4.6 22.1 11 12.7 13.3 17.2 34.3 17 52.2C324.5 194.4 318.5 210.3 303.2 219.2zM213.1 269.2c-9.2-7.7-28.6-12.5-33.5 2.5-.5 1.5-.7 3.2-.8 4.8-1-.1-2.2.1-3.3.8-21.2 14.3 19.4 59.5 40.5 36.1C227.7 300.3 226.4 280.2 213.1 269.2zM210.3 304c-5.3 9.9-15.1 5.8-21.7-.2-3.3-3.1-6.1-6.9-7.8-11.1-.6-1.4-1.1-3.8-1-4.7.1-1.7.2-1.7 1.3-2.4.2-.1.3-.2.5-.4 3.3 2.1 8.6.6 7.7-4.2-.7-3.8-1-7.7 2.2-8.9 3.7-1.4 8.6.6 12 2.5C215 280.9 216.1 293.1 210.3 304zM326.6 248.7c-6.4-1.6-13.5-2.1-18.6 3-3.9 3.9-5.7 9.3-7.3 14.5-.8.9-1.4 2-1.4 3.5 0 .3 0 .7 0 1-.2.8-.2 1.6 0 2.3-.2 7-.4 13.9 1.8 20.7 2.4 7.4 8.9 13.5 16.4 15.4 15.4 4 24.2-16.4 26-28C345.5 267.4 341.6 252.4 326.6 248.7zM333.4 280.4c-.9 6.1-6 21.9-15 18.6-10.5-3.8-9.6-17-9.2-26.7 0 0 0 0 0 0 1.4-4.1 2.6-8.3 4.7-12.1 2.4-4.2 7-2.4 10.8-1.7C334.6 260.3 334.5 272.8 333.4 280.4zM259.3 252.7c-11.8-2-18.4 11.4-21.5 20.5-.2.6-.3 1.2-.3 1.8-3.7 2.1-2.3 9.4 3.2 9.4 7.4 0 14.8.3 22.2-.6 6.1-.7 15.6-2.8 16.2-10.4C279.9 263.9 267.6 254.1 259.3 252.7zM255.7 274.3c-2.6.1-5.2.2-7.8.1 1.9-5.3 5.2-12.7 10.6-11.8 3.6.6 7.3 4.8 9.5 7.5.3.4.9 1.2 1.1 1.7C265.6 274.3 259.6 274.1 255.7 274.3zM273.9 290.4h-30c-2 0-3.4 1-4 2.4-1.3.5-2.4 1.7-2.5 3.6-.8 9.8 1.5 19.7 9.7 25.9 8.4 6.3 19.6 5.7 28.9 1.8 2.2-.9 3.3-2.7 3.3-5.1v-24C279.3 292.1 276.4 290.4 273.9 290.4zM269.3 315.9c-5 1.5-10.1 1.8-14.9-.7-5.4-2.8-7.3-9.1-7.2-14.9h22.2V315.9zM201.2 338c-10.4.4-19.1 9.2-21.4 19-3.2-1.2-7.4.5-6.5 4.7 2.3 11.2 11.2 16.9 22.4 16.3 10-.5 21.2-6.8 24-16.9C223 349.3 213.3 337.6 201.2 338zM209.4 360.1c-3.1 6.4-14.9 10.3-21.7 6.9 1-.9 1.7-2.2 1.5-4-.6-6.9 4.8-13.8 11.7-14.9C207.6 347 212.1 354.5 209.4 360.1zM263.7 329.1c-13.5 1.1-23.4 13.5-22.4 26.7.7 26.4 40.8 15.5 44.7-4.3C288.7 338.3 275.9 328.1 263.7 329.1zM275.9 351.1c-2.2 8.5-24.3 16.9-24.6 3.9-.6-8.1 5.1-14.9 13.2-15.9C271.4 338.2 277.7 344.1 275.9 351.1zM344.9 343.1c-2.1-10.6-11.9-17-22.4-16.7-10.8.3-17.1 9.2-17.3 19.1-1.8 1-2.9 3.1-1.7 5.6 4.7 9.9 14.3 17.4 25.7 16.3C341.1 366.2 347.1 354.1 344.9 343.1zM328.5 357.3c-5.6.9-10.9-2.6-14.1-7.1.6-.8.9-1.9.8-3.2-.4-5.8 2-10.2 8.1-10.6 5.2-.4 10 3 11.6 7.9C336.7 349.6 334.4 356.4 328.5 357.3zM200.4 384.4c-10-.3-15.1 8.3-15.4 17-3.2-2-8.4-.4-7.7 4.3 3.5 24.3 41.2 21.5 42-2.8C219.6 392.4 210.4 384.7 200.4 384.4zM189.9 410.1c2.9.3 5.9-1.5 5.4-5.1-.7-4.6-.5-10.1 5.2-10.6 5-.4 8.4 3.9 8.8 8.4C210.1 412.7 196 415.8 189.9 410.1zM288.9 387.4c-3.2-5.8-9.6-7.4-15.8-7.4-9.2 0-19.4 5.5-22.3 13.7-.7.6-1.2 1.5-1.4 2.7-2.2 11.9 3.7 22.5 16.5 23 9.9.4 21.2-5.6 24.7-15.2C292.6 398.5 291.8 392.6 288.9 387.4zM280.8 401.6c-2.5 5.2-9 7.7-14.4 7.9-3.1.1-5.1-1-6.3-2.8 1.2-1.1 1.8-2.9.8-4.9-3.7-8.1 6.4-11.5 12.8-11.8C280.3 389.7 283.5 395.9 280.8 401.6zM350.6 385.9c-2.9-13.5-19.7-18-30.2-10.8-11 7.5-14.7 24.4-6.2 35 1.5 1.9 3.7 2.3 5.5 1.7 4.9 3.1 11.2 3.4 17.5.2C346.8 407.3 352.9 396.6 350.6 385.9zM333 403.1c-5.7 3.5-10.1.4-12-5.4-.3-1-.9-1.7-1.5-2.3.2-4.3 2.2-8.5 5.6-11.4 5.6-4.8 14.8-2.3 16 5.5C342 395.2 337.5 400.4 333 403.1zM225.9 447.1c-1.9-9.3-10.8-15.5-19.9-16.2-8.2-.6-14.5 3.2-17.2 9.8-2.5-.5-5.1.6-5.4 3.8-1.2 12.9 7.8 26.6 21.7 27C217.3 471.7 228.4 459.2 225.9 447.1zM206.5 461.4c-5.9.8-10.8-4.1-12.6-9.6 1.8-.7 3.3-2.3 3.4-4.8.3-10 15.1-6.6 18.2 0C218.4 453.1 212.7 460.6 206.5 461.4zM273.9 431.1c-10 3.1-16.6 13.5-12.9 22.4-.9 10.2 5.2 18.5 16.5 18.3 11-.2 21.1-9.6 21.4-20.7C299.1 437.1 287.4 426.8 273.9 431.1zM288.6 452.8c-1 5.1-6.4 8.4-11.3 8.9-3.2.3-5-.7-5.9-2.6 2-1.8 2.7-5.1.1-7.4-.1-.1-.2-.2-.3-.3 0-1.5-.6-2.7-1.5-3.5.2-3.5 4.9-6.5 8.2-7.6C285.5 437.9 289.8 446.5 288.6 452.8zM332.7 424.7c-11.8-.9-27.1 7.8-24.8 19.9-.5.8-.8 1.9-.6 3.1 1.4 11.3 8.4 21.3 21 19.4 10.1-1.5 19.8-9.5 22.7-19.4C354.5 436.1 344.2 425.5 332.7 424.7zM340.6 447.1c-2.3 4.8-7.8 9.1-13.1 10.1-5.4 1-8.2-2.2-9.6-6.8 1.3-1.5 1.8-3.7.5-5.9-4.5-7.4 11.1-11.2 16-9.5C340.3 437.1 343.2 441.7 340.6 447.1z"/></svg>