<svg xmlns="http://www.w3.org/2000/svg" viewBox="0 0 50 50">
  <path d="M16.613281 11C15.172281 11 14 12.172281 14 13.613281L14 36C14 37.654 15.346 39 17 39L21.349609 39L21.357422 39C22.004422 39 22.663109 38.723281 23.162109 38.238281L23.236328 38.166016C23.346328 38.059016 23.489531 38 23.644531 38L28.349609 38C28.503609 38 28.651719 38.059969 28.761719 38.167969L28.837891 38.242188C29.323891 38.721187 29.982437 38.996047 30.648438 38.998047L32.958984 38.998047C34.607984 38.998047 35.954984 37.656859 35.958984 36.005859L36 16.802734C36.001 15.996734 35.672703 15.211438 35.095703 14.648438L33.302734 12.900391C32.740734 12.352391 31.997891 12.048875 31.212891 12.046875L19.681641 12.029297C19.515641 12.029297 19.360359 11.964969 19.193359 11.792969C18.703359 11.289969 18.019406 11 17.316406 11L16.613281 11 z M 21 18L22 18L22 21.941406C22 23.066577 22.933423 24 24.058594 24L28 24C28.833333 24 29.421991 24.20416 29.802734 24.394531C30.183477 24.584903 30.292969 24.707031 30.292969 24.707031 A 1.0001 1.0001 0 0 0 31 25.013672L31 25.986328 A 1.0001 1.0001 0 0 0 30.292969 26.292969C30.292969 26.292969 30.183477 26.415097 29.802734 26.605469C29.421991 26.79584 28.833333 27 28 27L27.167969 27 A 1.0001 1.0001 0 0 0 26.841797 27L23.167969 27 A 1.0001 1.0001 0 0 0 22.841797 27L22 27C21.166667 27 20.578009 26.79584 20.197266 26.605469C19.816523 26.415097 19.707031 26.292969 19.707031 26.292969 A 1.0001 1.0001 0 0 0 19 25.990234L19 20C19 18.895 19.895 18 21 18 z M 24 18L26 18L26 22L24.058594 22C24.013765 22 24 21.986235 24 21.941406L24 18 z M 28 18L29 18C30.105 18 31 18.895 31 20L31 22.794922C30.893345 22.729309 30.824707 22.669189 30.697266 22.605469C30.078009 22.29584 29.166667 22 28 22L28 18 z M 19 28.205078C19.106655 28.270691 19.175293 28.330811 19.302734 28.394531C19.921991 28.70416 20.833333 29 22 29L22 33L21 33C19.895 33 19 32.105 19 31L19 28.205078 z M 31 28.205078L31 31C31 32.105 30.105 33 29 33L28 33L28 29C29.166667 29 30.078009 28.70416 30.697266 28.394531C30.824707 28.330811 30.893345 28.270691 31 28.205078 z M 24 29L26 29L26 33L24 33L24 29 z" fill="#2FC2C0" />
</svg>