<?xml version="1.0" encoding="utf-8"?>
<svg width="32.25px" height="39px" viewBox="0 0 32.25 39" version="1.1" xmlns:xlink="http://www.w3.org/1999/xlink" xmlns="http://www.w3.org/2000/svg">
  <g id="g" fill-opacity="1">
    <path d="M32.25 0L32.25 0L32.25 39L0 39L0 0L32.25 0Z" id="g" fill="none" stroke="none" />
    <path d="M3 0C1.346 0 0 1.346 0 3L0 31C0 32.654 1.346 34 3 34L25 34C26.654 34 28 32.654 28 31L28 6.82813C28 6.02612 27.6881 5.27303 27.1211 4.70703L23.293 0.878906C22.727 0.311906 21.9739 0 21.1719 0L3 0L3 0ZM7 8L9 8L9 13C9 14.645 10.355 16 12 16L13.832 16C13.94 16.0178 14.0502 16.0178 14.1582 16L17.832 16C17.94 16.0178 18.0502 16.0178 18.1582 16L23 16L23 22L18.168 22C18.06 21.9822 17.9498 21.9822 17.8418 22L14.168 22C14.06 21.9822 13.9498 21.9822 13.8418 22L10 22L10 19C10 17.9069 9.09306 17 8 17L5 17L5 10C5 8.895 5.895 8 7 8L7 8ZM11 8L13 8L13 14L12 14C11.435 14 11 13.565 11 13L11 8L11 8ZM15 8L17 8L17 14L15 14L15 8L15 8ZM19 8L21 8C22.105 8 23 8.895 23 10L23 14L19 14L19 8L19 8ZM5 19L8 19L8 22.832C7.98215 22.94 7.98215 23.0502 8 23.1582L8 29L7 29C5.895 29 5 28.105 5 27L5 19L5 19ZM10 24L13 24L13 29L10 29L10 24L10 24ZM15 24L17 24L17 29L15 29L15 24L15 24ZM19 24L23 24L23 27C23 28.105 22.105 29 21 29L19 29L19 24L19 24Z" id="شكل" fill="#2FC2C0" fill-rule="evenodd" stroke="none" />
    <path d="M23.1875 23.0625C19.3905 23.0625 16.3125 26.1405 16.3125 29.9375C16.3125 33.7345 19.3905 36.8125 23.1875 36.8125C26.9845 36.8125 30.0625 33.7345 30.0625 29.9375C30.0625 26.1405 26.9845 23.0625 23.1875 23.0625L23.1875 23.0625Z" id="شكل" fill="#F9E3AE" stroke="none" />
    <path d="M17.4719 36.5906C18.3001 37.3784 19.2747 37.9963 20.3406 38.4094L31 27.75L31 25.7406C30.6699 25.1937 30.2812 24.6845 29.8406 24.2219L17.4719 36.5906ZM16.8625 35.95L29.125 23.6875L27.25 23.6875L16.0687 34.8688C16.3053 35.2489 16.5707 35.6104 16.8625 35.95L16.8625 35.95ZM15.9344 33.7531L26.3125 23.375L25.375 22.75L15.4875 32.6375C15.6105 33.0192 15.7598 33.392 15.9344 33.7531L15.9344 33.7531Z" id="شكل" fill="#FFEFCA" fill-rule="evenodd" stroke="none" />
    <path d="M23.1875 21.1875C18.355 21.1875 14.4375 25.105 14.4375 29.9375C14.4375 34.77 18.355 38.6875 23.1875 38.6875C28.02 38.6875 31.9375 34.77 31.9375 29.9375C31.9375 25.105 28.02 21.1875 23.1875 21.1875L23.1875 21.1875ZM23.1875 36.8125C20.0964 36.813 17.385 34.7505 16.5605 31.7714C15.736 28.7923 17.001 25.6292 19.6525 24.0403C22.304 22.4514 25.6899 22.8274 27.9281 24.9594L28.1406 25.1688C28.2219 25.2521 28.3 25.3375 28.375 25.425C30.1434 27.4576 30.5615 30.3358 29.4446 32.7876C28.3277 35.2393 25.8817 36.8128 23.1875 36.8125L23.1875 36.8125Z" id="شكل" fill="#F6D397" fill-rule="evenodd" stroke="none" />
    <path d="M23.1875 20.875C18.1824 20.875 14.125 24.9324 14.125 29.9375C14.125 34.9426 18.1824 39 23.1875 39C28.1926 39 32.25 34.9426 32.25 29.9375C32.25 24.9324 28.1926 20.875 23.1875 20.875L23.1875 20.875ZM23.1875 38.375C18.5276 38.375 14.75 34.5974 14.75 29.9375C14.75 25.2776 18.5276 21.5 23.1875 21.5C27.8474 21.5 31.625 25.2776 31.625 29.9375C31.625 34.5974 27.8474 38.375 23.1875 38.375L23.1875 38.375Z" id="شكل" fill="#8D6C9F" fill-rule="evenodd" stroke="none" />
    <path d="M23.1875 35.875C23.0149 35.875 22.875 36.0149 22.875 36.1875L22.875 36.8125C22.875 36.9851 23.0149 37.125 23.1875 37.125C23.3601 37.125 23.5 36.9851 23.5 36.8125L23.5 36.1875C23.5 36.0149 23.3601 35.875 23.1875 35.875L23.1875 35.875ZM25.0625 35.9C25.0131 35.739 24.845 35.646 24.6824 35.6899C24.5198 35.7337 24.4212 35.8985 24.4594 36.0625L24.6219 36.6656C24.6676 36.833 24.8404 36.9317 25.0078 36.8859C25.1752 36.8402 25.2739 36.6674 25.2281 36.5L25.0625 35.9ZM20.2969 35.1C20.2248 35.0583 20.1391 35.047 20.0587 35.0687C19.9784 35.0904 19.91 35.1433 19.8687 35.2156L19.5562 35.7562C19.4786 35.9046 19.5318 36.0878 19.6768 36.1717C19.8218 36.2555 20.007 36.2101 20.0969 36.0687L20.4094 35.5281C20.4514 35.4565 20.4631 35.371 20.442 35.2907C20.4209 35.2104 20.3687 35.1418 20.2969 35.1L20.2969 35.1ZM26.5063 35.2156C26.4164 35.0743 26.2311 35.0289 26.0861 35.1127C25.9412 35.1965 25.888 35.3797 25.9656 35.5281L26.2781 36.0687C26.3313 36.1705 26.436 36.2348 26.5508 36.2364C26.6656 36.2379 26.772 36.1764 26.8279 36.0762C26.8838 35.976 26.8803 35.8531 26.8188 35.7562L26.5063 35.2156ZM21.6906 35.6781C21.5241 35.6345 21.3537 35.7337 21.3094 35.9L21.1469 36.5C21.1134 36.6092 21.1422 36.7279 21.2219 36.8097C21.3016 36.8915 21.4196 36.9233 21.5296 36.8926C21.6396 36.862 21.7241 36.7737 21.75 36.6625L21.9125 36.0594C21.9562 35.8929 21.857 35.7224 21.6906 35.6781L21.6906 35.6781ZM22.5625 27.125L23.8125 27.125C24.3303 27.125 24.75 27.5447 24.75 28.0625C24.75 28.2351 24.8899 28.375 25.0625 28.375C25.2351 28.375 25.375 28.2351 25.375 28.0625C25.375 27.1996 24.6754 26.5 23.8125 26.5L23.5 26.5L23.5 25.5625C23.5 25.3899 23.3601 25.25 23.1875 25.25C23.0149 25.25 22.875 25.3899 22.875 25.5625L22.875 26.5L22.5625 26.5C21.6996 26.5 21 27.1996 21 28.0625L21 28.6875C21 29.5504 21.6996 30.25 22.5625 30.25L23.8125 30.25C24.3303 30.25 24.75 30.6697 24.75 31.1875L24.75 31.8125C24.75 32.3303 24.3303 32.75 23.8125 32.75L23.5 32.75L23.5 30.875C23.5 30.7024 23.3601 30.5625 23.1875 30.5625C23.0149 30.5625 22.875 30.7024 22.875 30.875L22.875 32.75L22.5625 32.75C22.0447 32.75 21.625 32.3303 21.625 31.8125C21.625 31.6399 21.4851 31.5 21.3125 31.5C21.1399 31.5 21 31.6399 21 31.8125C21 32.6754 21.6996 33.375 22.5625 33.375L22.875 33.375L22.875 34.3125C22.875 34.4851 23.0149 34.625 23.1875 34.625C23.3601 34.625 23.5 34.4851 23.5 34.3125L23.5 33.375L23.8125 33.375C24.6754 33.375 25.375 32.6754 25.375 31.8125L25.375 31.1875C25.375 30.3246 24.6754 29.625 23.8125 29.625L23.5 29.625L23.5 27.75C23.5 27.5774 23.3601 27.4375 23.1875 27.4375C23.0149 27.4375 22.875 27.5774 22.875 27.75L22.875 29.625L22.5625 29.625C22.0447 29.625 21.625 29.2053 21.625 28.6875L21.625 28.0625C21.625 27.5447 22.0447 27.125 22.5625 27.125L22.5625 27.125Z" id="شكل" fill="#8D6C9F" fill-rule="evenodd" stroke="none" />
    <path d="M18.1741 25.3061C19.6663 23.8202 21.7789 23.1373 23.8584 23.4686C24.031 23.4962 24.1933 23.3787 24.2209 23.2061C24.2486 23.0335 24.131 22.8712 23.9585 22.8436C20.8768 22.3425 17.8242 23.8881 16.404 26.6685C14.9839 29.4489 15.5211 32.8282 17.7334 35.0311C17.8574 35.1373 18.0423 35.1301 18.1577 35.0147C18.2731 34.8993 18.2803 34.7144 18.1741 34.5905C16.9423 33.3596 16.2502 31.6896 16.2502 29.9483C16.2502 28.2069 16.9423 26.5369 18.1741 25.3061L18.1741 25.3061ZM27.896 24.8655C27.6902 24.6587 27.4721 24.4646 27.2428 24.2842C27.1562 24.2052 27.0327 24.1814 26.9229 24.2224C26.8131 24.2635 26.7355 24.3625 26.7219 24.479C26.7083 24.5954 26.7611 24.7096 26.8585 24.7748C27.0679 24.9398 27.2672 25.1172 27.4553 25.3061C28.6862 26.5368 29.3777 28.2061 29.3777 29.9467C29.3777 31.6873 28.6862 33.3566 27.4553 34.5873C27.3661 34.6637 27.3273 34.7836 27.3548 34.8978C27.3822 35.0119 27.4714 35.1011 27.5855 35.1285C27.6997 35.156 27.8196 35.1171 27.896 35.028C30.7014 32.2213 30.7014 27.6721 27.896 24.8655L27.896 24.8655Z" id="شكل" fill="#8D6C9F" fill-rule="evenodd" stroke="none" />
    <path d="M19.2813 29.3125L19.6688 30.0187L20.375 30.4063L19.6688 30.7938L19.2813 31.5L18.8937 30.7938L18.1875 30.4063L18.8937 30.0187L19.2813 29.3125L19.2813 29.3125ZM27.0687 26.5L27.3344 26.9875L27.825 27.2563L27.3344 27.5219L27.0687 28.0125L26.8 27.5219L26.3125 27.2563L26.8 26.9875L27.0687 26.5L27.0687 26.5ZM27.0469 31.4063L27.2313 31.7406L27.5625 31.9219L27.2313 32.1062L27.0469 32.4375L26.8656 32.1062L26.5313 31.9219L26.8656 31.7406L27.0469 31.4063L27.0469 31.4063Z" id="شكل" fill="#FFF8F8" fill-rule="evenodd" stroke="none" />
  </g>
</svg>