<svg xmlns="http://www.w3.org/2000/svg" viewBox="0 0 100 100"><path fill="#c8ede6" d="M87.214,55.677c0.3-0.616,0.566-1.264,0.796-1.943c2.633-7.77-1.349-17.078-9.733-19.325C77.37,23.026,69.37,15.216,60.335,13.884c-10.341-1.525-19.814,5.044-22.966,15.485c-3.799-1.346-7.501-1.182-10.99,0.857c-1.583,0.732-3.031,1.812-4.33,3.233c-1.907,2.086-3.147,4.719-3.652,7.495c-0.748,0.118-1.483,0.236-2.176,0.484c-4.04,1.449-6.589,4.431-7.288,8.923c-0.435,2.797,0.443,5.587,0.933,6.714c1.935,4.455,6.422,6.98,10.981,6.312c0.227-0.033,0.557,0.069,0.752,0.233c0.241,7.12,3.698,13.417,8.884,17.014c8.321,5.772,19.027,3.994,25.781-3.921c2.894,2.96,6.338,4.398,10.384,3.876c4.023-0.519,7.147-2.739,9.426-6.349c1.053,0.283,2.051,0.691,3.083,0.804c4.042,0.442,7.297-1.184,9.732-4.8c0.083-0.124,0.203-0.219,0.306-0.328c0.348-0.798,0.696-1.596,1.044-2.394c0.155-1.211,0.429-2.423,0.443-3.632C90.722,60.634,89.39,57.667,87.214,55.677z"/><path fill="#fff" d="M69.142 23.496H59.111c-.276 0-.5-.224-.5-.5s.224-.5.5-.5h10.031c.276 0 .5.224.5.5S69.418 23.496 69.142 23.496zM72.023 23.496h-1.446c-.276 0-.5-.224-.5-.5s.224-.5.5-.5h1.446c.276 0 .5.224.5.5S72.299 23.496 72.023 23.496zM76.078 23.496h-2.546c-.276 0-.5-.224-.5-.5s.224-.5.5-.5h2.546c.276 0 .5.224.5.5S76.354 23.496 76.078 23.496zM76.078 25.361h-9.616c-.276 0-.5-.224-.5-.5s.224-.5.5-.5h9.616c.276 0 .5.224.5.5S76.354 25.361 76.078 25.361zM64.73 25.361h-.58c-.276 0-.5-.224-.5-.5s.224-.5.5-.5h.58c.276 0 .5.224.5.5S65.006 25.361 64.73 25.361zM62.353 25.361h-1.457c-.276 0-.5-.224-.5-.5s.224-.5.5-.5h1.457c.276 0 .5.224.5.5S62.629 25.361 62.353 25.361zM71.489 21.631h-5.027c-.276 0-.5-.224-.5-.5s.224-.5.5-.5h5.027c.276 0 .5.224.5.5S71.765 21.631 71.489 21.631zM71.489 19.766h-1.258c-.276 0-.5-.224-.5-.5s.224-.5.5-.5h1.258c.276 0 .5.224.5.5S71.765 19.766 71.489 19.766zM68.22 27.226h-1.759c-.276 0-.5-.224-.5-.5s.224-.5.5-.5h1.759c.276 0 .5.224.5.5S68.497 27.226 68.22 27.226zM17.913 52.365H7.882c-.276 0-.5-.224-.5-.5s.224-.5.5-.5h10.03c.276 0 .5.224.5.5S18.189 52.365 17.913 52.365zM20.793 52.365h-1.445c-.276 0-.5-.224-.5-.5s.224-.5.5-.5h1.445c.276 0 .5.224.5.5S21.07 52.365 20.793 52.365zM24.848 52.365h-2.546c-.276 0-.5-.224-.5-.5s.224-.5.5-.5h2.546c.276 0 .5.224.5.5S25.124 52.365 24.848 52.365zM22.822 48.635h-9.616c-.276 0-.5-.224-.5-.5s.224-.5.5-.5h9.616c.276 0 .5.224.5.5S23.098 48.635 22.822 48.635zM11.474 48.635h-.58c-.276 0-.5-.224-.5-.5s.224-.5.5-.5h.58c.276 0 .5.224.5.5S11.75 48.635 11.474 48.635zM9.097 48.635H7.641c-.276 0-.5-.224-.5-.5s.224-.5.5-.5h1.456c.276 0 .5.224.5.5S9.373 48.635 9.097 48.635zM20.259 50.5h-5.027c-.276 0-.5-.224-.5-.5s.224-.5.5-.5h5.027c.276 0 .5.224.5.5S20.536 50.5 20.259 50.5z"/><path fill="#fff" d="M20.259 48.635h-1.258c-.276 0-.5-.224-.5-.5s.224-.5.5-.5h1.258c.276 0 .5.224.5.5S20.536 48.635 20.259 48.635zM13.777 50.5h-1.759c-.276 0-.5-.224-.5-.5s.224-.5.5-.5h1.759c.276 0 .5.224.5.5S14.053 50.5 13.777 50.5z"/><path fill="#9f8066" d="M66.431,69.796H37.738c-2.537,0-4.613-2.076-4.613-4.613V35.956c0-2.537,2.076-4.613,4.613-4.613h28.693c2.537,0,4.613,2.076,4.613,4.613v29.227C71.044,67.72,68.968,69.796,66.431,69.796z"/><path fill="#472b29" d="M66.431,70.496H37.738c-2.93,0-5.312-2.383-5.312-5.313V35.956c0-2.93,2.383-5.313,5.312-5.313h28.693c2.93,0,5.312,2.383,5.312,5.313v29.227C71.744,68.113,69.361,70.496,66.431,70.496z M37.738,32.044c-2.157,0-3.912,1.755-3.912,3.913v29.227c0,2.158,1.755,3.913,3.912,3.913h28.693c2.157,0,3.912-1.755,3.912-3.913V35.956c0-2.158-1.755-3.913-3.912-3.913H37.738z"/><path fill="#bd977c" d="M33.659 37.218H70.509V64.455H33.659z"/><path fill="#472b29" d="M70.955 37.326H33.392c-.207 0-.375-.168-.375-.375s.168-.375.375-.375h37.562c.207 0 .375.168.375.375S71.162 37.326 70.955 37.326zM70.955 64.563H33.392c-.207 0-.375-.168-.375-.375 0-.207.168-.375.375-.375h37.562c.207 0 .375.168.375.375C71.33 64.395 71.162 64.563 70.955 64.563z"/><path fill="#f1bc19" d="M38.199 65.761A1.068 1.068 0 1 0 38.199 67.89699999999999A1.068 1.068 0 1 0 38.199 65.761Z" transform="rotate(-89.874 38.2 66.829)"/><path fill="#472b29" d="M38.199,68.272c-0.001,0-0.002,0-0.003,0c-0.796-0.002-1.441-0.65-1.44-1.446c0.003-0.795,0.649-1.44,1.442-1.44c0.001,0,0.003,0,0.004,0c0.385,0,0.747,0.151,1.02,0.425c0.272,0.273,0.422,0.636,0.421,1.021c0,0,0,0,0,0.001C39.639,67.626,38.992,68.272,38.199,68.272z M38.199,66.135c-0.382,0-0.692,0.31-0.693,0.692c-0.001,0.381,0.31,0.693,0.692,0.694h0.001c0.381,0,0.692-0.31,0.693-0.692C38.892,66.447,38.582,66.136,38.199,66.135L38.199,66.135z M39.267,66.831h0.01H39.267z"/><path fill="#f1bc19" d="M38.199 33.183A1.068 1.068 0 1 0 38.199 35.318999999999996A1.068 1.068 0 1 0 38.199 33.183Z" transform="rotate(-89.874 38.2 34.25)"/><path fill="#472b29" d="M38.199,35.694c-0.001,0-0.002,0-0.003,0c-0.796-0.002-1.441-0.651-1.44-1.446c0.003-0.795,0.649-1.44,1.442-1.44c0.001,0,0.003,0,0.004,0c0.385,0,0.747,0.151,1.02,0.425c0.272,0.273,0.422,0.636,0.421,1.021c0,0,0,0,0,0C39.639,35.049,38.992,35.694,38.199,35.694z M38.199,33.558c-0.382,0-0.692,0.31-0.693,0.692c-0.001,0.381,0.31,0.693,0.692,0.694h0.001c0.381,0,0.692-0.31,0.693-0.692C38.892,33.87,38.582,33.558,38.199,33.558L38.199,33.558z M39.267,34.253h0.01H39.267z"/><path fill="#f1bc19" d="M65.97 33.243A1.068 1.068 0 1 0 65.97 35.379A1.068 1.068 0 1 0 65.97 33.243Z" transform="rotate(-89.874 65.971 34.31)"/><path fill="#472b29" d="M65.97 35.754c-.002 0-.003 0-.004 0-.795-.001-1.44-.65-1.439-1.446.001-.386.151-.748.425-1.02.272-.271.634-.42 1.019-.42.001 0 .002 0 .003 0 .796.002 1.441.651 1.44 1.446 0 0 0 0 0 .001C67.411 35.109 66.763 35.754 65.97 35.754zM65.97 33.618c-.382 0-.692.31-.693.691-.001.382.31.694.691.695h.001c.382 0 .693-.31.694-.692C66.664 33.93 66.353 33.619 65.97 33.618L65.97 33.618zM67.039 34.314h.01H67.039zM37.664 64.563c-.207 0-.375-.168-.375-.375V43.36c0-.207.168-.375.375-.375s.375.168.375.375v20.828C38.039 64.395 37.872 64.563 37.664 64.563zM42.471 64.563c-.207 0-.375-.168-.375-.375V36.951c0-.207.168-.375.375-.375s.375.168.375.375v27.237C42.846 64.395 42.678 64.563 42.471 64.563zM47.278 64.563c-.207 0-.375-.168-.375-.375V37.485c0-.207.168-.375.375-.375s.375.168.375.375v26.703C47.653 64.395 47.485 64.563 47.278 64.563zM52.084 64.563c-.207 0-.375-.168-.375-.375V36.951c0-.207.168-.375.375-.375s.375.168.375.375v27.237C52.459 64.395 52.291 64.563 52.084 64.563zM56.891 64.563c-.207 0-.375-.168-.375-.375V37.485c0-.207.168-.375.375-.375s.375.168.375.375v26.703C57.266 64.395 57.098 64.563 56.891 64.563zM61.698 64.563c-.207 0-.375-.168-.375-.375V36.951c0-.207.168-.375.375-.375s.375.168.375.375v27.237C62.073 64.395 61.905 64.563 61.698 64.563zM66.504 56.018c-.207 0-.375-.168-.375-.375V36.951c0-.207.168-.375.375-.375s.375.168.375.375v18.692C66.879 55.85 66.711 56.018 66.504 56.018z"/><path fill="#93735c" d="M41.869 64.188L69.107 36.951 62.299 36.951 35.062 64.188z"/><path fill="#472b29" d="M41.87 64.563h-6.808c-.151 0-.288-.091-.347-.231-.058-.14-.025-.301.081-.409l27.237-27.237c.07-.07.166-.11.266-.11h6.808c.151 0 .288.091.347.231.058.14.025.301-.081.409L42.135 64.453C42.065 64.524 41.969 64.563 41.87 64.563zM35.967 63.813h5.747l26.487-26.487h-5.747L35.967 63.813zM37.664 42.667c-.207 0-.375-.168-.375-.375v-3.204c0-.207.168-.375.375-.375s.375.168.375.375v3.204C38.039 42.499 37.872 42.667 37.664 42.667zM66.504 59.223c-.207 0-.375-.168-.375-.375v-1.602c0-.207.168-.375.375-.375s.375.168.375.375v1.602C66.879 59.055 66.711 59.223 66.504 59.223z"/><path fill="#472b29" d="M42.709 63.126h-6.183c-.069 0-.125-.056-.125-.125s.056-.125.125-.125h6.183c.069 0 .125.056.125.125S42.779 63.126 42.709 63.126zM43.532 62.346h-6.183c-.069 0-.125-.056-.125-.125s.056-.125.125-.125h6.183c.069 0 .125.056.125.125S43.601 62.346 43.532 62.346zM44.354 61.568H38.17c-.069 0-.125-.056-.125-.125s.056-.125.125-.125h6.184c.069 0 .125.056.125.125S44.423 61.568 44.354 61.568zM45.175 60.789h-6.183c-.069 0-.125-.056-.125-.125s.056-.125.125-.125h6.183c.069 0 .125.056.125.125S45.245 60.789 45.175 60.789zM45.998 60.009h-6.183c-.069 0-.125-.056-.125-.125s.056-.125.125-.125h6.183c.069 0 .125.056.125.125S46.067 60.009 45.998 60.009zM45.03 59.231h-4.394c-.069 0-.125-.056-.125-.125s.056-.125.125-.125h4.394c.069 0 .125.056.125.125S45.099 59.231 45.03 59.231zM42.975 58.452h-1.713c-.069 0-.125-.056-.125-.125s.056-.125.125-.125h1.713c.069 0 .125.056.125.125S43.044 58.452 42.975 58.452zM67.848 38.07h-6.183c-.069 0-.125-.056-.125-.125s.056-.125.125-.125h6.183c.069 0 .125.056.125.125S67.917 38.07 67.848 38.07zM67.026 38.849h-6.183c-.069 0-.125-.056-.125-.125s.056-.125.125-.125h6.183c.069 0 .125.056.125.125S67.095 38.849 67.026 38.849zM66.204 39.628h-6.183c-.069 0-.125-.056-.125-.125s.056-.125.125-.125h6.183c.069 0 .125.056.125.125S66.273 39.628 66.204 39.628zM65.382 40.406h-4.394c-.069 0-.125-.056-.125-.125s.056-.125.125-.125h4.394c.069 0 .125.056.125.125S65.452 40.406 65.382 40.406zM64.756 41.186h-1.713c-.069 0-.125-.056-.125-.125s.056-.125.125-.125h1.713c.069 0 .125.056.125.125S64.826 41.186 64.756 41.186z"/><g><path fill="#bcbce2" d="M76.111,61.137c-0.03-1.456,0.757-2.377,2.077-2.889c-0.081-0.795-1.006-3.03-1.475-3.562c-1.266,0.592-2.465,0.503-3.475-0.494c-1.026-1.013-1.106-2.224-0.51-3.517c-1.113-0.685-2.305-1.18-3.581-1.476c-0.431,1.255-1.268,2.041-2.58,2.138c-1.554,0.115-2.562-0.689-3.095-2.125c-1.276,0.312-2.464,0.805-3.567,1.495c0.607,1.282,0.528,2.48-0.469,3.494c-1.01,1.027-2.218,1.122-3.516,0.525c-0.676,1.112-1.162,2.303-1.453,3.577c1.297,0.475,2.079,1.365,2.112,2.745c0.034,1.435-0.739,2.374-2.072,2.892c0.307,1.264,0.807,2.441,1.497,3.543c1.258-0.56,2.433-0.468,3.424,0.497c1.011,0.983,1.133,2.17,0.574,3.453c1.113,0.677,2.297,1.16,3.564,1.453c0.019-0.038,0.033-0.06,0.042-0.085c0.458-1.193,1.498-1.957,2.688-1.972c1.272-0.016,2.326,0.693,2.814,1.905c0.053,0.132,0.114,0.129,0.227,0.101c1.146-0.29,2.227-0.736,3.243-1.341c0.055-0.033,0.108-0.071,0.152-0.1c-0.516-1.164-0.469-2.268,0.356-3.23c0.992-1.156,2.239-1.325,3.626-0.735c0.684-1.106,1.178-2.286,1.478-3.548C76.913,63.393,76.139,62.517,76.111,61.137z M66.326,63.124c-1.156-0.005-2.086-0.941-2.081-2.093c0.005-1.154,0.946-2.08,2.11-2.069c1.163,0.011,2.091,0.975,2.058,2.142C68.382,62.19,67.5,63.118,66.326,63.124z"/><path fill="#472b29" d="M63.547,73.26c-0.022,0-0.044-0.002-0.066-0.007c-1.296-0.3-2.532-0.804-3.674-1.499c-0.16-0.097-0.224-0.298-0.148-0.47c0.526-1.208,0.365-2.201-0.492-3.034c-0.836-0.814-1.818-0.954-3.011-0.423c-0.168,0.076-0.371,0.015-0.47-0.144c-0.712-1.136-1.23-2.365-1.543-3.653c-0.045-0.183,0.053-0.37,0.229-0.438c1.262-0.491,1.861-1.32,1.832-2.534c-0.027-1.166-0.638-1.952-1.865-2.402c-0.178-0.065-0.278-0.251-0.236-0.436c0.297-1.302,0.801-2.543,1.498-3.688c0.1-0.164,0.305-0.225,0.478-0.146c1.228,0.566,2.238,0.419,3.091-0.447c0.841-0.855,0.972-1.86,0.398-3.071c-0.081-0.171-0.021-0.377,0.14-0.478c1.116-0.699,2.354-1.218,3.677-1.542c0.184-0.044,0.374,0.056,0.44,0.234c0.506,1.363,1.396,1.985,2.716,1.882c1.107-0.082,1.845-0.698,2.253-1.886c0.062-0.182,0.254-0.287,0.439-0.243c1.298,0.301,2.541,0.813,3.692,1.521c0.162,0.1,0.224,0.304,0.145,0.477c-0.569,1.232-0.428,2.244,0.433,3.093c0.854,0.842,1.853,0.981,3.052,0.421c0.149-0.069,0.33-0.033,0.44,0.092c0.526,0.597,1.478,2.889,1.566,3.772c0.017,0.168-0.08,0.326-0.237,0.387c-1.262,0.489-1.862,1.317-1.837,2.531l0,0c0.023,1.153,0.625,1.939,1.84,2.404c0.176,0.067,0.274,0.254,0.231,0.437c-0.306,1.286-0.818,2.517-1.523,3.659c-0.098,0.158-0.295,0.221-0.466,0.148c-1.308-0.557-2.353-0.349-3.195,0.634c-0.688,0.804-0.786,1.73-0.298,2.834c0.074,0.167,0.017,0.363-0.135,0.464c-0.075,0.051-0.121,0.082-0.168,0.11c-1.04,0.619-2.164,1.084-3.343,1.383c-0.406,0.101-0.586-0.122-0.668-0.326c-0.426-1.059-1.357-1.682-2.46-1.669c-1.041,0.013-1.938,0.676-2.343,1.731c-0.006,0.015-0.034,0.075-0.042,0.088C63.847,73.155,63.695,73.26,63.547,73.26z M60.469,71.274c0.906,0.519,1.872,0.913,2.879,1.174c0.582-1.222,1.701-1.977,2.943-1.992c0.017,0,0.032,0,0.048,0c1.357,0,2.483,0.734,3.05,1.979c1.022-0.274,1.983-0.672,2.878-1.19c-0.453-1.24-0.27-2.383,0.537-3.323c0.984-1.15,2.277-1.477,3.751-0.955c0.527-0.905,0.928-1.865,1.194-2.863c-1.292-0.595-1.986-1.612-2.014-2.959l0,0c-0.029-1.427,0.671-2.502,2.03-3.125c-0.18-0.771-0.782-2.234-1.181-2.87c-1.364,0.536-2.606,0.301-3.611-0.69c-1.006-0.994-1.251-2.243-0.719-3.629c-0.909-0.526-1.874-0.924-2.877-1.187c-0.534,1.26-1.491,1.973-2.784,2.068c-1.529,0.116-2.695-0.595-3.346-2.054c-1.021,0.278-1.983,0.681-2.869,1.201c0.538,1.365,0.308,2.606-0.676,3.606c-0.996,1.012-2.244,1.264-3.627,0.735c-0.518,0.906-0.909,1.872-1.169,2.878c1.309,0.581,2.014,1.6,2.046,2.962c0.034,1.42-0.657,2.493-2.003,3.12c0.271,0.998,0.677,1.956,1.207,2.856c1.343-0.495,2.556-0.254,3.532,0.696C60.691,68.685,60.957,69.912,60.469,71.274z M66.326,63.499c0,0-0.001,0-0.002,0c-0.658-0.003-1.276-0.261-1.739-0.728c-0.464-0.466-0.717-1.085-0.714-1.743c0.003-0.657,0.262-1.272,0.729-1.733c0.47-0.464,1.125-0.701,1.761-0.709c0.663,0.006,1.282,0.273,1.742,0.751c0.462,0.479,0.705,1.11,0.686,1.776c-0.037,1.329-1.117,2.376-2.46,2.384C66.328,63.499,66.327,63.499,66.326,63.499z M66.335,59.337c-0.458,0-0.888,0.174-1.21,0.493c-0.323,0.319-0.503,0.747-0.505,1.203c-0.002,0.457,0.174,0.887,0.495,1.211c0.322,0.324,0.752,0.503,1.21,0.506c0.935-0.006,1.687-0.733,1.712-1.655c0.014-0.464-0.155-0.902-0.476-1.235c-0.319-0.332-0.749-0.517-1.21-0.521C66.347,59.337,66.341,59.337,66.335,59.337z"/><g><path fill="#7878aa" d="M73.777,59.147c-1.047-4.113-5.23-6.599-9.344-5.552c-4.113,1.047-6.599,5.23-5.552,9.344c1.047,4.113,5.23,6.599,9.344,5.552C72.339,67.444,74.824,63.26,73.777,59.147z M67.844,66.991c-3.285,0.836-6.625-1.149-7.462-4.433c-0.836-3.285,1.149-6.625,4.433-7.462c3.285-0.836,6.625,1.149,7.462,4.433C73.113,62.814,71.128,66.154,67.844,66.991z"/><path fill="#472b29" d="M66.345 67.509c-1.121 0-2.226-.301-3.214-.888-1.45-.861-2.478-2.236-2.894-3.871-.416-1.634-.171-3.333.69-4.782.861-1.45 2.235-2.478 3.87-2.894 3.375-.858 6.816 1.187 7.676 4.561.416 1.634.171 3.333-.69 4.782-.861 1.45-2.235 2.478-3.87 2.894C67.394 67.444 66.868 67.509 66.345 67.509zM66.355 55.379c-.474 0-.954.058-1.434.18-1.505.383-2.771 1.33-3.563 2.665s-1.019 2.899-.636 4.404c.383 1.505 1.329 2.771 2.664 3.563 1.336.794 2.899 1.019 4.404.636 1.505-.383 2.771-1.33 3.563-2.665.793-1.335 1.019-2.899.636-4.404C71.321 57.132 68.95 55.379 66.355 55.379zM59.059 58.717c-.028 0-.057-.005-.085-.015-.13-.047-.197-.19-.15-.32.898-2.502 2.972-4.387 5.545-5.042.133-.034.27.047.304.181s-.047.27-.181.304c-2.412.614-4.354 2.381-5.197 4.727C59.257 58.653 59.162 58.717 59.059 58.717z"/><path fill="#472b29" d="M66.519,68.944c-0.802,0-1.619-0.118-2.43-0.358c-2.762-0.821-4.812-2.893-5.485-5.543c-0.034-0.134,0.047-0.27,0.181-0.304c0.13-0.036,0.27,0.046,0.304,0.181c0.629,2.478,2.552,4.417,5.144,5.187c2.611,0.775,5.304,0.195,7.203-1.554c0.102-0.093,0.26-0.086,0.353,0.015c0.094,0.102,0.087,0.26-0.015,0.354C70.335,68.245,68.473,68.944,66.519,68.944z"/><path fill="#a2a2cc" d="M73.121,64.781c-0.16,0.292-0.337,0.575-0.532,0.844"/><path fill="#472b29" d="M72.588,65.875c-0.051,0-0.103-0.016-0.146-0.047c-0.112-0.081-0.137-0.237-0.056-0.349c0.188-0.26,0.36-0.535,0.515-0.817c0.066-0.123,0.221-0.164,0.34-0.1c0.121,0.066,0.165,0.218,0.1,0.339c-0.164,0.301-0.35,0.594-0.55,0.871C72.742,65.839,72.665,65.875,72.588,65.875z"/><path fill="#a2a2cc" d="M73.877,62.788c-0.106,0.464-0.255,0.918-0.444,1.354"/><path fill="#472b29" d="M73.433 64.393c-.033 0-.066-.006-.099-.021-.127-.055-.186-.202-.131-.329.184-.425.328-.867.429-1.311.031-.134.17-.218.3-.188.135.03.219.165.188.299-.108.474-.262.944-.458 1.398C73.622 64.336 73.53 64.393 73.433 64.393zM73.829 59.417c-.111 0-.214-.075-.242-.188-.621-2.439-2.413-4.391-4.792-5.221-.131-.045-.199-.188-.154-.318.046-.13.189-.199.318-.153 2.538.885 4.449 2.967 5.112 5.569.034.134-.047.27-.181.304C73.87 59.414 73.849 59.417 73.829 59.417z"/><path fill="#a2a2cc" d="M69.086 55.587L71.14 55.089"/><path fill="#472b29" d="M69.085,55.712c-0.057,0-0.107-0.039-0.121-0.096c-0.017-0.067,0.024-0.135,0.092-0.151l2.055-0.497c0.065-0.017,0.135,0.025,0.15,0.092c0.017,0.067-0.024,0.135-0.092,0.151l-2.055,0.497C69.105,55.711,69.095,55.712,69.085,55.712z"/><path fill="#a2a2cc" d="M70.877 56.767L72.422 56.512"/><path fill="#472b29" d="M70.876,56.892c-0.061,0-0.113-0.043-0.123-0.104c-0.012-0.068,0.034-0.133,0.103-0.144l1.546-0.255c0.067-0.012,0.133,0.035,0.144,0.103c0.012,0.068-0.034,0.133-0.103,0.144l-1.546,0.255C70.89,56.892,70.883,56.892,70.876,56.892z"/><path fill="#a2a2cc" d="M71.879 58.353L73.446 58.184"/><path fill="#472b29" d="M71.878,58.478c-0.063,0-0.117-0.047-0.124-0.112c-0.008-0.068,0.042-0.13,0.11-0.138l1.568-0.169c0.083-0.009,0.13,0.043,0.138,0.111s-0.042,0.13-0.11,0.138l-1.568,0.169C71.887,58.478,71.882,58.478,71.878,58.478z"/><path fill="#a2a2cc" d="M63.394 54.022L63.549 55.457"/><path fill="#472b29" d="M63.548,55.582c-0.063,0-0.117-0.047-0.124-0.112l-0.154-1.435c-0.008-0.068,0.042-0.13,0.11-0.138c0.078-0.009,0.13,0.043,0.138,0.111l0.154,1.435c0.008,0.068-0.042,0.13-0.11,0.138C63.557,55.582,63.552,55.582,63.548,55.582z"/><path fill="#a2a2cc" d="M61.869 54.826L62.343 56.413"/><path fill="#472b29" d="M62.342,56.538c-0.054,0-0.104-0.035-0.12-0.089l-0.473-1.586c-0.02-0.066,0.019-0.136,0.084-0.155c0.072-0.02,0.136,0.018,0.156,0.084l0.473,1.586c0.02,0.066-0.019,0.136-0.084,0.155C62.366,56.536,62.354,56.538,62.342,56.538z"/><path fill="#a2a2cc" d="M60.34 56.228L61.271 57.609"/><path fill="#472b29" d="M61.272,57.734c-0.04,0-0.079-0.019-0.104-0.055l-0.933-1.381c-0.039-0.057-0.023-0.135,0.033-0.173c0.057-0.038,0.135-0.024,0.174,0.034l0.933,1.381c0.039,0.057,0.023,0.135-0.033,0.173C61.321,57.727,61.296,57.734,61.272,57.734z"/><g><path fill="#a2a2cc" d="M59.226 63.967L60.816 63.884"/><path fill="#472b29" d="M59.226,64.092c-0.066,0-0.121-0.052-0.125-0.119c-0.003-0.069,0.05-0.127,0.118-0.131l1.59-0.083c0.085,0,0.128,0.05,0.132,0.119c0.003,0.069-0.05,0.127-0.118,0.131l-1.59,0.083C59.23,64.092,59.228,64.092,59.226,64.092z"/></g><g><path fill="#a2a2cc" d="M60.184 65.692L61.727 65.232"/><path fill="#472b29" d="M60.184,65.817c-0.054,0-0.104-0.035-0.12-0.089c-0.02-0.066,0.019-0.136,0.084-0.155l1.543-0.46c0.073-0.019,0.137,0.018,0.156,0.084s-0.019,0.136-0.084,0.155l-1.543,0.46C60.207,65.816,60.196,65.817,60.184,65.817z"/></g><g><path fill="#a2a2cc" d="M61.843 67.135L63.145 66.466"/><path fill="#472b29" d="M61.843,67.26c-0.045,0-0.089-0.025-0.111-0.068c-0.031-0.062-0.007-0.137,0.054-0.168l1.302-0.669c0.062-0.031,0.137-0.007,0.169,0.054c0.031,0.062,0.007,0.137-0.054,0.168l-1.302,0.669C61.882,67.256,61.863,67.26,61.843,67.26z"/></g><g><path fill="#a2a2cc" d="M63.967 68.129L64.93 67.209"/><path fill="#472b29" d="M63.967,68.254c-0.033,0-0.065-0.013-0.091-0.039c-0.047-0.05-0.046-0.129,0.005-0.177l0.962-0.92c0.049-0.047,0.128-0.046,0.177,0.004c0.047,0.05,0.046,0.129-0.005,0.177l-0.962,0.92C64.03,68.242,63.998,68.254,63.967,68.254z"/></g><g><path fill="#a2a2cc" d="M66.259 68.686L67.007 67.293"/><path fill="#472b29" d="M66.259,68.81c-0.021,0-0.04-0.005-0.06-0.015c-0.061-0.033-0.083-0.109-0.051-0.169l0.747-1.392c0.032-0.062,0.106-0.083,0.17-0.051c0.061,0.033,0.083,0.109,0.051,0.169l-0.747,1.392C66.347,68.786,66.304,68.81,66.259,68.81z"/></g><g><path fill="#a2a2cc" d="M68.733 68.287L68.851 66.824"/><path fill="#472b29" d="M68.733,68.412c-0.003,0-0.007,0-0.01,0c-0.069-0.005-0.12-0.066-0.115-0.134l0.117-1.463c0.006-0.068,0.07-0.123,0.135-0.115c0.069,0.005,0.12,0.066,0.115,0.134l-0.117,1.463C68.852,68.362,68.797,68.412,68.733,68.412z"/></g><g><path fill="#a2a2cc" d="M65.219,53.408c0.471-0.064,0.949-0.085,1.424-0.062"/><path fill="#472b29" d="M65.219,53.658c-0.123,0-0.23-0.091-0.248-0.216c-0.019-0.137,0.077-0.263,0.214-0.282c0.482-0.067,0.977-0.089,1.47-0.064c0.139,0.006,0.245,0.124,0.238,0.262c-0.007,0.138-0.117,0.253-0.262,0.237c-0.462-0.024-0.926-0.002-1.378,0.061C65.242,53.657,65.23,53.658,65.219,53.658z"/></g></g></g><g><path fill="#fdfcef" d="M44.534,74.712h10.151c0.171,0,0.908,0,1.118,0c2.765,0,4.993-2.295,4.885-5.085c-0.077-1.964-1.387-3.696-3.227-4.387c-0.963-0.361-1.877-0.373-2.717-0.188c-0.119-1.82-1.63-3.261-3.48-3.261c-1.011,0-1.919,0.432-2.557,1.119c0.14-0.688,0.155-1.422,0.014-2.177c-0.438-2.356-2.405-4.195-4.784-4.486c-3.253-0.398-6.033,2.004-6.27,5.116c-0.924-1.223-2.386-2.017-4.037-2.017c-2.796,0-5.063,2.267-5.063,5.063c0,0.213,0.017,0.422,0.043,0.628c-2.218,0.463-3.884,2.429-3.884,4.784c0,2.7,2.189,4.889,4.888,4.889c0.071,0,11.762,0,11.762,0"/><path fill="#472b29" d="M55.803,75.213H44.535c-0.276,0-0.5-0.224-0.5-0.5s0.224-0.5,0.5-0.5h11.269c1.205,0,2.328-0.479,3.164-1.347c0.835-0.868,1.269-2.011,1.221-3.218c-0.067-1.729-1.234-3.312-2.902-3.938c-0.796-0.299-1.589-0.355-2.434-0.167c-0.138,0.032-0.291,0-0.407-0.088c-0.117-0.087-0.189-0.222-0.199-0.367c-0.104-1.566-1.413-2.793-2.981-2.793c-0.838,0-1.616,0.341-2.19,0.959c-0.153,0.164-0.398,0.205-0.595,0.104c-0.199-0.102-0.306-0.325-0.262-0.544c0.132-0.651,0.137-1.319,0.014-1.987c-0.398-2.137-2.188-3.815-4.354-4.08c-1.401-0.17-2.777,0.221-3.86,1.109c-1.071,0.878-1.745,2.172-1.85,3.549c-0.017,0.207-0.158,0.383-0.358,0.441c-0.197,0.058-0.414-0.012-0.539-0.178c-0.874-1.156-2.2-1.818-3.639-1.818c-2.516,0-4.562,2.047-4.562,4.563c0,0.192,0.016,0.379,0.039,0.564c0.033,0.259-0.139,0.5-0.394,0.553c-2.021,0.422-3.487,2.229-3.487,4.295c0,2.42,1.969,4.389,4.389,4.389h11.763c0.276,0,0.5,0.224,0.5,0.5s-0.224,0.5-0.5,0.5H29.616c-2.972,0-5.389-2.417-5.389-5.389c0-2.387,1.594-4.491,3.849-5.164c-0.005-0.083-0.007-0.165-0.007-0.249c0-3.067,2.495-5.563,5.562-5.563c1.395,0,2.701,0.51,3.714,1.425c0.321-1.242,1.034-2.371,2.038-3.193c1.295-1.061,2.931-1.536,4.615-1.328c2.594,0.317,4.738,2.328,5.215,4.89c0.072,0.387,0.107,0.774,0.106,1.16c0.59-0.331,1.26-0.51,1.944-0.51c1.907,0,3.527,1.359,3.905,3.182c0.84-0.103,1.668-0.002,2.468,0.298c2.04,0.766,3.467,2.709,3.551,4.835c0.058,1.481-0.475,2.884-1.5,3.95C58.663,74.625,57.283,75.213,55.803,75.213z"/><path fill="#fdfcef" d="M44.211,63.944c1.808-0.119,3.365,1.13,3.476,2.789c0.014,0.206,0.005,0.409-0.025,0.606c0.349-0.394,0.865-0.661,1.458-0.7c1.085-0.071,2.022,0.645,2.158,1.62c0.197-0.054,0.403-0.09,0.616-0.104c1.582-0.104,2.944,0.989,3.042,2.441"/><path fill="#472b29" d="M54.936,70.845c-0.131,0-0.24-0.101-0.249-0.233c-0.089-1.311-1.333-2.307-2.776-2.208c-0.188,0.012-0.378,0.045-0.567,0.096c-0.068,0.018-0.143,0.007-0.203-0.033c-0.06-0.04-0.1-0.103-0.11-0.174c-0.117-0.85-0.936-1.473-1.894-1.405c-0.507,0.033-0.965,0.252-1.288,0.617c-0.073,0.083-0.193,0.107-0.293,0.06c-0.101-0.047-0.157-0.154-0.141-0.264c0.027-0.18,0.035-0.366,0.023-0.552c-0.103-1.52-1.576-2.666-3.21-2.556c-0.165,0.013-0.257-0.096-0.266-0.233c-0.01-0.138,0.095-0.257,0.232-0.266c1.95-0.126,3.622,1.228,3.741,3.022c0.002,0.019,0.003,0.037,0.004,0.056c0.34-0.222,0.738-0.355,1.163-0.383c1.11-0.068,2.092,0.6,2.366,1.568c0.137-0.026,0.273-0.044,0.408-0.053c1.749-0.109,3.201,1.088,3.308,2.674c0.01,0.138-0.095,0.257-0.232,0.266C54.947,70.845,54.942,70.845,54.936,70.845z"/><g><path fill="#fdfcef" d="M27.636,65.612c1.699-0.801,3.664-0.234,4.389,1.267c0.09,0.186,0.157,0.379,0.201,0.574"/><path fill="#472b29" d="M32.226,67.702c-0.114,0-0.218-0.079-0.244-0.195c-0.04-0.178-0.101-0.354-0.182-0.52c-0.664-1.375-2.482-1.891-4.058-1.149c-0.121,0.059-0.272,0.007-0.333-0.12c-0.059-0.125-0.005-0.273,0.12-0.333c1.817-0.858,3.938-0.237,4.721,1.384c0.098,0.201,0.171,0.412,0.22,0.627c0.03,0.135-0.055,0.269-0.189,0.299C32.262,67.7,32.244,67.702,32.226,67.702z"/></g></g></svg>