<svg xmlns="http://www.w3.org/2000/svg" width="512" height="512" viewBox="0 0 512 512"><path fill="#3CB881" d="M7.9,256C7.9,119,119,7.9,256,7.9C393,7.9,504.1,119,504.1,256c0,137-111.1,248.1-248.1,248.1C119,504.1,7.9,393,7.9,256z"/><path fill="#202121" d="M340.1,99.9H173.3c-32.5,0-49.1,16.5-49.1,49.1v317.2c4,2.5,8.1,5,12.3,7.3v-311h239.2v310.8c4.6-2.5,9.1-5.3,13.5-8.1V149C389.2,116.4,372.7,99.9,340.1,99.9z"/><path fill="#61A5B1" d="M375.7,473.3V162.5H136.5v311c35.5,19.5,76.2,30.7,119.5,30.7C299.4,504.1,340.2,492.9,375.7,473.3z"/><path d="M287.8,136.7c0,3.2-2.6,5.7-5.7,5.7h-50.7c-3.2,0-5.7-2.6-5.7-5.7l0,0c0-3.2,2.6-5.7,5.7-5.7h50.7C285.2,131,287.8,133.5,287.8,136.7L287.8,136.7z"/><g><path fill="#FFF" d="M461.8,332.6c0,12.8-10.4,23.2-23.2,23.2H262.4c-12.8,0-23.2-10.4-23.2-23.2V230c0-12.8,10.4-23.2,23.2-23.2h176.2c12.8,0,23.2,10.4,23.2,23.2V332.6z"/><path fill="#FFF" d="M296.1,387.1c-1.8,1.8-4.8,1.8-6.6,0l-22.3-31.4c-1.8-1.8-1.8-4.8,0-6.6h51.1c1.8,1.8,1.8,4.8,0,6.6L296.1,387.1z"/></g><g><path fill="#B7CAC4" d="M426.2 249.3c0 4.2-3.4 7.7-7.7 7.7H292.8c-4.2 0-7.7-3.4-7.7-7.7l0 0c0-4.2 3.4-7.7 7.7-7.7h125.8C422.8 241.6 426.2 245.1 426.2 249.3L426.2 249.3zM426.2 280c0 4.2-3.4 7.7-7.7 7.7H292.8c-4.2 0-7.7-3.4-7.7-7.7l0 0c0-4.2 3.4-7.7 7.7-7.7h125.8C422.8 272.3 426.2 275.8 426.2 280L426.2 280zM426.2 310.7c0 4.2-3.4 7.7-7.7 7.7H292.8c-4.2 0-7.7-3.4-7.7-7.7l0 0c0-4.2 3.4-7.7 7.7-7.7h125.8C422.8 303 426.2 306.4 426.2 310.7L426.2 310.7z"/></g></svg>