<svg xmlns="http://www.w3.org/2000/svg" viewBox="0 0 40 40"><path fill="#ffc49c" d="M16.519,38.5c-0.524,0-1.017-0.204-1.388-0.575L2.074,24.869c-0.765-0.765-0.765-2.01,0-2.775 l20.021-20.02c0.37-0.371,0.863-0.575,1.387-0.575l0,0c0.524,0,1.017,0.204,1.388,0.575l13.057,13.056 c0.765,0.765,0.765,2.01,0,2.775l-20.021,20.02C17.535,38.296,17.042,38.5,16.519,38.5z"/><path fill="#a16a4a" d="M23.482,2c0.391,0,0.758,0.152,1.034,0.428l13.056,13.056c0.57,0.57,0.57,1.497,0,2.067 l-20.02,20.02C17.276,37.848,16.909,38,16.518,38s-0.758-0.152-1.034-0.428L2.428,24.515c-0.57-0.57-0.57-1.497,0-2.067 l20.02-20.02C22.724,2.152,23.091,2,23.482,2 M23.482,1c-0.63,0-1.26,0.24-1.741,0.721l-20.02,20.02 c-0.961,0.961-0.961,2.52,0,3.482l13.056,13.056C15.258,38.76,15.888,39,16.518,39s1.26-0.24,1.741-0.721l20.02-20.02 c0.961-0.961,0.961-2.52,0-3.482L25.223,1.721C24.742,1.24,24.112,1,23.482,1L23.482,1z"/><path fill="none" stroke="#a16a4a" d="M20 13.5A6.5 6.5 0 1 0 20 26.5 6.5 6.5 0 1 0 20 13.5zM24.352 15.648L31.316 8.684M8.684 31.316L15.648 24.352"/></svg>